<svg version="1.1" xmlns="http://www.w3.org/2000/svg" xmlns:xlink="http://www.w3.org/1999/xlink" width="1467" height="1364"><defs></defs><g><g transform="translate(2,2) scale(1,1)"><rect fill="#C0C0C0" stroke="none" x="15" y="15" width="578.8" height="15" opacity="0.2"></rect></g><g transform="translate(2,2) scale(1,1)"><rect fill="#C0C0C0" stroke="none" x="15" y="29" width="1447" height="1330" opacity="0.2"></rect></g><g transform="translate(2,2) scale(1,1)"><rect fill="#a3e0ff" stroke="none" x="8" y="23" width="1447" height="1329"></rect></g><g transform="translate(2,2) scale(1,1)"><path fill="none" stroke="#000000" d="M 8 23 L 1455 23 L 1455 1352 L 8 1352 L 8 23 Z Z" stroke-miterlimit="10"></path></g><g transform="translate(2,2) scale(1,1)"><rect fill="#a3e0ff" stroke="none" x="8" y="8" width="578.8" height="15"></rect></g><g transform="translate(2,2) scale(1,1)"><path fill="none" stroke="#000000" d="M 8 8 L 586.8 8 L 586.8 23 L 8 23 L 8 8 Z Z" stroke-miterlimit="10"></path></g><g transform="translate(2,2) scale(1,1)"><rect fill="#a3e0ff" stroke="none" x="8" y="22" width="1447" height="1330"></rect></g><g transform="translate(2,2) scale(1,1)"><path fill="none" stroke="#000000" d="M 8 22 L 1455 22 L 1455 1352 L 8 1352 L 8 22 Z Z" stroke-miterlimit="10"></path></g><g transform="translate(2,2) scale(1,1)"><g><path fill="none" stroke="none"></path><text fill="#000000" stroke="none" font-family="Arial" font-size="13px" font-style="normal" font-weight="bold" text-decoration="none" x="640" y="42.5">it.cnr.isti.wnlab.indoornavigation</text></g></g><g transform="translate(2,2) scale(1,1)"><rect fill="#C0C0C0" stroke="none" x="23" y="871" width="566.4" height="15" opacity="0.2"></rect></g><g transform="translate(2,2) scale(1,1)"><rect fill="#C0C0C0" stroke="none" x="23" y="885" width="1416" height="457" opacity="0.2"></rect></g><g transform="translate(2,2) scale(1,1)"><rect fill="#00ff00" stroke="none" x="16" y="879" width="1416" height="456"></rect></g><g transform="translate(2,2) scale(1,1)"><path fill="none" stroke="#000000" d="M 16 879 L 1432 879 L 1432 1335 L 16 1335 L 16 879 Z Z" stroke-miterlimit="10"></path></g><g transform="translate(2,2) scale(1,1)"><rect fill="#00ff00" stroke="none" x="16" y="864" width="566.4" height="15"></rect></g><g transform="translate(2,2) scale(1,1)"><path fill="none" stroke="#000000" d="M 16 864 L 582.4 864 L 582.4 879 L 16 879 L 16 864 Z Z" stroke-miterlimit="10"></path></g><g transform="translate(2,2) scale(1,1)"><rect fill="#00ff00" stroke="none" x="16" y="878" width="1416" height="457"></rect></g><g transform="translate(2,2) scale(1,1)"><path fill="none" stroke="#000000" d="M 16 878 L 1432 878 L 1432 1335 L 16 1335 L 16 878 Z Z" stroke-miterlimit="10"></path></g><g transform="translate(2,2) scale(1,1)"><g><path fill="none" stroke="none"></path><text fill="#000000" stroke="none" font-family="Arial" font-size="13px" font-style="normal" font-weight="bold" text-decoration="none" x="703" y="898.5">android</text></g></g><g transform="translate(2,2) scale(1,1)"><rect fill="#C0C0C0" stroke="none" x="23" y="663" width="566" height="15" opacity="0.2"></rect></g><g transform="translate(2,2) scale(1,1)"><rect fill="#C0C0C0" stroke="none" x="23" y="677" width="1415" height="138" opacity="0.2"></rect></g><g transform="translate(2,2) scale(1,1)"><rect fill="#82abff" stroke="none" x="16" y="671" width="1415" height="137"></rect></g><g transform="translate(2,2) scale(1,1)"><path fill="none" stroke="#000000" d="M 16 671 L 1431 671 L 1431 808 L 16 808 L 16 671 Z Z" stroke-miterlimit="10"></path></g><g transform="translate(2,2) scale(1,1)"><rect fill="#82abff" stroke="none" x="16" y="656" width="566" height="15"></rect></g><g transform="translate(2,2) scale(1,1)"><path fill="none" stroke="#000000" d="M 16 656 L 582 656 L 582 671 L 16 671 L 16 656 Z Z" stroke-miterlimit="10"></path></g><g transform="translate(2,2) scale(1,1)"><rect fill="#82abff" stroke="none" x="16" y="670" width="1415" height="138"></rect></g><g transform="translate(2,2) scale(1,1)"><path fill="none" stroke="#000000" d="M 16 670 L 1431 670 L 1431 808 L 16 808 L 16 670 Z Z" stroke-miterlimit="10"></path></g><g transform="translate(2,2) scale(1,1)"><g><path fill="none" stroke="none"></path><text fill="#000000" stroke="none" font-family="Arial" font-size="13px" font-style="normal" font-weight="bold" text-decoration="none" x="711.5" y="690.5">utils</text></g></g><g transform="translate(2,2) scale(1,1)"><path fill="#C0C0C0" stroke="none" d="M 509 226.5 C 509 220.1487248 514.1487248 215 520.5 215 C 526.8512752 215 532 220.1487248 532 226.5 C 532 232.8512752 526.8512752 238 520.5 238 C 514.1487248 238 509 232.8512752 509 226.5 Z" opacity="0.2"></path></g><g transform="translate(2,2) scale(1,1)"><path fill="#ffffff" stroke="none" d="M 502 219.5 C 502 213.1487248 507.1487248 208 513.5 208 C 519.8512752 208 525 213.1487248 525 219.5 C 525 225.8512752 519.8512752 231 513.5 231 C 507.1487248 231 502 225.8512752 502 219.5 Z"></path></g><g transform="translate(2,2) scale(1,1)"><path fill="none" stroke="#000000" d="M 502 219.5 C 502 213.1487248 507.1487248 208 513.5 208 C 519.8512752 208 525 213.1487248 525 219.5 C 525 225.8512752 519.8512752 231 513.5 231 C 507.1487248 231 502 225.8512752 502 219.5 Z" stroke-miterlimit="10"></path></g><g transform="translate(2,2) scale(1,1)"><g><path fill="none" stroke="none"></path><text fill="#000000" stroke="none" font-family="Arial" font-size="13px" font-style="normal" font-weight="bold" text-decoration="none" x="479" y="250.5">DataEmitter</text></g></g><g transform="translate(2,2) scale(1,1)"><path fill="#C0C0C0" stroke="none" d="M 575.5 122.5 C 575.5 116.1487248 580.6487248 111 587 111 C 593.3512752 111 598.5 116.1487248 598.5 122.5 C 598.5 128.8512752 593.3512752 134 587 134 C 580.6487248 134 575.5 128.8512752 575.5 122.5 Z" opacity="0.2"></path></g><g transform="translate(2,2) scale(1,1)"><path fill="#ffffff" stroke="none" d="M 568.5 115.5 C 568.5 109.1487248 573.6487248 104 580 104 C 586.3512752 104 591.5 109.1487248 591.5 115.5 C 591.5 121.8512752 586.3512752 127 580 127 C 573.6487248 127 568.5 121.8512752 568.5 115.5 Z"></path></g><g transform="translate(2,2) scale(1,1)"><path fill="none" stroke="#000000" d="M 568.5 115.5 C 568.5 109.1487248 573.6487248 104 580 104 C 586.3512752 104 591.5 109.1487248 591.5 115.5 C 591.5 121.8512752 586.3512752 127 580 127 C 573.6487248 127 568.5 121.8512752 568.5 115.5 Z" stroke-miterlimit="10"></path></g><g transform="translate(2,2) scale(1,1)"><g><path fill="none" stroke="none"></path><text fill="#000000" stroke="none" font-family="Arial" font-size="13px" font-style="normal" font-weight="bold" text-decoration="none" x="559" y="146.5">Emitter</text></g></g><g transform="translate(2,2) scale(1,1)"><path fill="none" stroke="#000000" d="M 529 207 L 564 153" stroke-miterlimit="10"></path></g><g transform="translate(2,2) scale(1,1)"><path fill="#FFFFFF" stroke="none" d="M 560.0099934776904 174.63515306051534 L 564 153 L 545.880275889997 165.4770027721956"></path></g><g transform="translate(2,2) scale(1,1)"><path fill="none" stroke="#000000" d="M 560.0099934776904 174.63515306051534 L 564 153 L 545.880275889997 165.4770027721956 L 560.0099934776904 174.63515306051534" stroke-miterlimit="10"></path></g><g transform="translate(2,2) scale(1,1)"><path fill="#C0C0C0" stroke="none" d="M 918 122.5 C 918 116.1487248 923.1487248 111 929.5 111 C 935.8512752 111 941 116.1487248 941 122.5 C 941 128.8512752 935.8512752 134 929.5 134 C 923.1487248 134 918 128.8512752 918 122.5 Z" opacity="0.2"></path></g><g transform="translate(2,2) scale(1,1)"><path fill="#ffffff" stroke="none" d="M 911 115.5 C 911 109.1487248 916.1487248 104 922.5 104 C 928.8512752 104 934 109.1487248 934 115.5 C 934 121.8512752 928.8512752 127 922.5 127 C 916.1487248 127 911 121.8512752 911 115.5 Z"></path></g><g transform="translate(2,2) scale(1,1)"><path fill="none" stroke="#000000" d="M 911 115.5 C 911 109.1487248 916.1487248 104 922.5 104 C 928.8512752 104 934 109.1487248 934 115.5 C 934 121.8512752 928.8512752 127 922.5 127 C 916.1487248 127 911 121.8512752 911 115.5 Z" stroke-miterlimit="10"></path></g><g transform="translate(2,2) scale(1,1)"><g><path fill="none" stroke="none"></path><text fill="#000000" stroke="none" font-family="Arial" font-size="13px" font-style="normal" font-weight="bold" text-decoration="none" x="846" y="146.5">IndoorLocalizationStrategy</text></g></g><g transform="translate(2,2) scale(1,1)"><path fill="none" stroke="#000000" d="M 831 128 L 617 128" stroke-miterlimit="10"></path></g><g transform="translate(2,2) scale(1,1)"><path fill="#FFFFFF" stroke="none" d="M 637.3253497152483 119.58096448796803 L 617 128 L 637.3253497152483 136.41903551203197"></path></g><g transform="translate(2,2) scale(1,1)"><path fill="none" stroke="#000000" d="M 637.3253497152483 119.58096448796803 L 617 128 L 637.3253497152483 136.41903551203197 L 637.3253497152483 119.58096448796803" stroke-miterlimit="10"></path></g><g transform="translate(2,2) scale(1,1)"><rect fill="#C0C0C0" stroke="none" x="1039" y="559" width="232" height="57" opacity="0.2"></rect></g><g transform="translate(2,2) scale(1,1)"><rect fill="#ffffff" stroke="none" x="1032" y="552" width="232" height="57"></rect></g><g transform="translate(2,2) scale(1,1)"><path fill="none" stroke="#000000" d="M 1032 552 L 1264 552 L 1264 609 L 1032 609 L 1032 552 Z Z" stroke-miterlimit="10"></path></g><g transform="translate(2,2) scale(1,1)"><path fill="none" stroke="#000000" d="M 1032 590 L 1264 590" stroke-miterlimit="10"></path></g><g transform="translate(2,2) scale(1,1)"><path fill="none" stroke="#000000" d="M 1032 600 L 1264 600" stroke-miterlimit="10"></path></g><g transform="translate(2,2) scale(1,1)"><g><path fill="none" stroke="none"></path><text fill="#000000" stroke="none" font-family="Arial" font-size="13px" font-style="normal" font-weight="normal" text-decoration="none" x="1117.5" y="569.5">«abstract»</text></g></g><g transform="translate(2,2) scale(1,1)"><g><path fill="none" stroke="none"></path><text fill="#000000" stroke="none" font-family="Arial" font-size="13px" font-style="normal" font-weight="bold" text-decoration="none" x="1047" y="584.5">AbstractIndoorLocalizationStrategy</text></g></g><g transform="translate(2,2) scale(1,1)"><path fill="none" stroke="#000000" d="M 1134 551 L 926.1052631578947 127" stroke-miterlimit="10"></path></g><g transform="translate(2,2) scale(1,1)"><rect fill="#C0C0C0" stroke="none" x="527" y="303" width="105" height="57" opacity="0.2"></rect></g><g transform="translate(2,2) scale(1,1)"><rect fill="#ffffff" stroke="none" x="520" y="296" width="105" height="57"></rect></g><g transform="translate(2,2) scale(1,1)"><path fill="none" stroke="#000000" d="M 520 296 L 625 296 L 625 353 L 520 353 L 520 296 Z Z" stroke-miterlimit="10"></path></g><g transform="translate(2,2) scale(1,1)"><path fill="none" stroke="#000000" d="M 520 334 L 625 334" stroke-miterlimit="10"></path></g><g transform="translate(2,2) scale(1,1)"><path fill="none" stroke="#000000" d="M 520 344 L 625 344" stroke-miterlimit="10"></path></g><g transform="translate(2,2) scale(1,1)"><g><path fill="none" stroke="none"></path><text fill="#000000" stroke="none" font-family="Arial" font-size="13px" font-style="normal" font-weight="normal" text-decoration="none" x="542" y="313.5">«abstract»</text></g></g><g transform="translate(2,2) scale(1,1)"><g><path fill="none" stroke="none"></path><text fill="#000000" stroke="none" font-family="Arial" font-size="13px" font-style="normal" font-weight="bold" text-decoration="none" x="527" y="328.5">AbstractEmitter</text></g></g><g transform="translate(2,2) scale(1,1)"><path fill="none" stroke="#000000" d="M 553 295 L 518.0526315789474 231" stroke-miterlimit="10"></path></g><g transform="translate(2,2) scale(1,1)"><rect fill="#C0C0C0" stroke="none" x="415" y="303" width="84" height="57" opacity="0.2"></rect></g><g transform="translate(2,2) scale(1,1)"><rect fill="#ffffff" stroke="none" x="408" y="296" width="84" height="57"></rect></g><g transform="translate(2,2) scale(1,1)"><path fill="none" stroke="#000000" d="M 408 296 L 492 296 L 492 353 L 408 353 L 408 296 Z Z" stroke-miterlimit="10"></path></g><g transform="translate(2,2) scale(1,1)"><path fill="none" stroke="#000000" d="M 408 334 L 492 334" stroke-miterlimit="10"></path></g><g transform="translate(2,2) scale(1,1)"><path fill="none" stroke="#000000" d="M 408 344 L 492 344" stroke-miterlimit="10"></path></g><g transform="translate(2,2) scale(1,1)"><g><path fill="none" stroke="none"></path><text fill="#000000" stroke="none" font-family="Arial" font-size="13px" font-style="normal" font-weight="normal" text-decoration="none" x="419.5" y="313.5">«abstract»</text></g></g><g transform="translate(2,2) scale(1,1)"><g><path fill="none" stroke="none"></path><text fill="#000000" stroke="none" font-family="Arial" font-size="13px" font-style="normal" font-weight="bold" text-decoration="none" x="415" y="328.5">LazyEmitter</text></g></g><g transform="translate(2,2) scale(1,1)"><path fill="none" stroke="#000000" d="M 470 295 L 507.63157894736844 231" stroke-miterlimit="10"></path></g><g transform="translate(2,2) scale(1,1)"><rect fill="#C0C0C0" stroke="none" x="71" y="303" width="83" height="57" opacity="0.2"></rect></g><g transform="translate(2,2) scale(1,1)"><rect fill="#ffffff" stroke="none" x="64" y="296" width="83" height="57"></rect></g><g transform="translate(2,2) scale(1,1)"><path fill="none" stroke="#000000" d="M 64 296 L 147 296 L 147 353 L 64 353 L 64 296 Z Z" stroke-miterlimit="10"></path></g><g transform="translate(2,2) scale(1,1)"><path fill="none" stroke="#000000" d="M 64 334 L 147 334" stroke-miterlimit="10"></path></g><g transform="translate(2,2) scale(1,1)"><path fill="none" stroke="#000000" d="M 64 344 L 147 344" stroke-miterlimit="10"></path></g><g transform="translate(2,2) scale(1,1)"><g><path fill="none" stroke="none"></path><text fill="#000000" stroke="none" font-family="Arial" font-size="13px" font-style="normal" font-weight="normal" text-decoration="none" x="75" y="313.5">«abstract»</text></g></g><g transform="translate(2,2) scale(1,1)"><g><path fill="none" stroke="none"></path><text fill="#000000" stroke="none" font-family="Arial" font-size="13px" font-style="normal" font-weight="bold" text-decoration="none" x="71" y="328.5">DataEmitter</text></g></g><g transform="translate(2,2) scale(1,1)"><path fill="none" stroke="#000000" d="M 148 324 L 407 324" stroke-miterlimit="10"></path></g><g transform="translate(2,2) scale(1,1)"><path fill="#FFFFFF" stroke="none" d="M 386.6746502847517 332.419035512032 L 407 324 L 386.6746502847517 315.580964487968"></path></g><g transform="translate(2,2) scale(1,1)"><path fill="none" stroke="#000000" d="M 386.6746502847517 332.419035512032 L 407 324 L 386.6746502847517 315.580964487968 L 386.6746502847517 332.419035512032" stroke-miterlimit="10"></path></g><g transform="translate(2,2) scale(1,1)"><path fill="none" stroke="#000000" d="M 1083 551 L 626 348" stroke-miterlimit="10"></path></g><g transform="translate(2,2) scale(1,1)"><path fill="#FFFFFF" stroke="none" d="M 647.9929470237186 348.5570289147867 L 626 348 L 641.1574830557852 363.9452409017106"></path></g><g transform="translate(2,2) scale(1,1)"><path fill="none" stroke="#000000" d="M 647.9929470237186 348.5570289147867 L 626 348 L 641.1574830557852 363.9452409017106 L 647.9929470237186 348.5570289147867" stroke-miterlimit="10"></path></g><g transform="translate(2,2) scale(1,1)"><rect fill="#C0C0C0" stroke="none" x="447" y="575" width="70" height="57" opacity="0.2"></rect></g><g transform="translate(2,2) scale(1,1)"><rect fill="#ffffff" stroke="none" x="440" y="568" width="70" height="57"></rect></g><g transform="translate(2,2) scale(1,1)"><path fill="none" stroke="#000000" d="M 440 568 L 510 568 L 510 625 L 440 625 L 440 568 Z Z" stroke-miterlimit="10"></path></g><g transform="translate(2,2) scale(1,1)"><path fill="none" stroke="#000000" d="M 440 606 L 510 606" stroke-miterlimit="10"></path></g><g transform="translate(2,2) scale(1,1)"><path fill="none" stroke="#000000" d="M 440 616 L 510 616" stroke-miterlimit="10"></path></g><g transform="translate(2,2) scale(1,1)"><g><path fill="none" stroke="none"></path><text fill="#000000" stroke="none" font-family="Arial" font-size="13px" font-style="normal" font-weight="normal" text-decoration="none" x="444.5" y="585.5">«abstract»</text></g></g><g transform="translate(2,2) scale(1,1)"><g><path fill="none" stroke="none"></path><text fill="#000000" stroke="none" font-family="Arial" font-size="13px" font-style="normal" font-weight="bold" text-decoration="none" x="447.5" y="600.5">Compass</text></g></g><g transform="translate(2,2) scale(1,1)"><path fill="none" stroke="#000000" d="M 485 567 L 561 354" stroke-miterlimit="10"></path></g><g transform="translate(2,2) scale(1,1)"><path fill="#FFFFFF" stroke="none" d="M 562.0989393092422 375.97253586627187 L 561 354 L 546.2401383267721 370.313996548583"></path></g><g transform="translate(2,2) scale(1,1)"><path fill="none" stroke="#000000" d="M 562.0989393092422 375.97253586627187 L 561 354 L 546.2401383267721 370.313996548583 L 562.0989393092422 375.97253586627187" stroke-miterlimit="10"></path></g><g transform="translate(2,2) scale(1,1)"><rect fill="#C0C0C0" stroke="none" x="543" y="575" width="91" height="57" opacity="0.2"></rect></g><g transform="translate(2,2) scale(1,1)"><rect fill="#ffffff" stroke="none" x="536" y="568" width="91" height="57"></rect></g><g transform="translate(2,2) scale(1,1)"><path fill="none" stroke="#000000" d="M 536 568 L 627 568 L 627 625 L 536 625 L 536 568 Z Z" stroke-miterlimit="10"></path></g><g transform="translate(2,2) scale(1,1)"><path fill="none" stroke="#000000" d="M 536 606 L 627 606" stroke-miterlimit="10"></path></g><g transform="translate(2,2) scale(1,1)"><path fill="none" stroke="#000000" d="M 536 616 L 627 616" stroke-miterlimit="10"></path></g><g transform="translate(2,2) scale(1,1)"><g><path fill="none" stroke="none"></path><text fill="#000000" stroke="none" font-family="Arial" font-size="13px" font-style="normal" font-weight="normal" text-decoration="none" x="551" y="585.5">«abstract»</text></g></g><g transform="translate(2,2) scale(1,1)"><g><path fill="none" stroke="none"></path><text fill="#000000" stroke="none" font-family="Arial" font-size="13px" font-style="normal" font-weight="bold" text-decoration="none" x="543.5" y="600.5">StepDetector</text></g></g><g transform="translate(2,2) scale(1,1)"><path fill="none" stroke="#000000" d="M 580 567 L 573 354" stroke-miterlimit="10"></path></g><g transform="translate(2,2) scale(1,1)"><path fill="#FFFFFF" stroke="none" d="M 582.0821015920409 374.0378499513258 L 573 354 L 565.2531160421762 374.5909152041383"></path></g><g transform="translate(2,2) scale(1,1)"><path fill="none" stroke="#000000" d="M 582.0821015920409 374.0378499513258 L 573 354 L 565.2531160421762 374.5909152041383 L 582.0821015920409 374.0378499513258" stroke-miterlimit="10"></path></g><g transform="translate(2,2) scale(1,1)"><rect fill="#C0C0C0" stroke="none" x="727" y="575" width="70" height="57" opacity="0.2"></rect></g><g transform="translate(2,2) scale(1,1)"><rect fill="#ffffff" stroke="none" x="720" y="568" width="70" height="57"></rect></g><g transform="translate(2,2) scale(1,1)"><path fill="none" stroke="#000000" d="M 720 568 L 790 568 L 790 625 L 720 625 L 720 568 Z Z" stroke-miterlimit="10"></path></g><g transform="translate(2,2) scale(1,1)"><path fill="none" stroke="#000000" d="M 720 606 L 790 606" stroke-miterlimit="10"></path></g><g transform="translate(2,2) scale(1,1)"><path fill="none" stroke="#000000" d="M 720 616 L 790 616" stroke-miterlimit="10"></path></g><g transform="translate(2,2) scale(1,1)"><g><path fill="none" stroke="none"></path><text fill="#000000" stroke="none" font-family="Arial" font-size="13px" font-style="normal" font-weight="normal" text-decoration="none" x="724.5" y="585.5">«abstract»</text></g></g><g transform="translate(2,2) scale(1,1)"><g><path fill="none" stroke="none"></path><text fill="#000000" stroke="none" font-family="Arial" font-size="13px" font-style="normal" font-weight="bold" text-decoration="none" x="741.5" y="600.5">PDR</text></g></g><g transform="translate(2,2) scale(1,1)"><path fill="none" stroke="#000000" d="M 735 567 L 592 354" stroke-miterlimit="10"></path></g><g transform="translate(2,2) scale(1,1)"><path fill="#FFFFFF" stroke="none" d="M 610.3191428271866 366.1823235089672 L 592 354 L 596.3393865548296 375.56779368242763"></path></g><g transform="translate(2,2) scale(1,1)"><path fill="none" stroke="#000000" d="M 610.3191428271866 366.1823235089672 L 592 354 L 596.3393865548296 375.56779368242763 L 610.3191428271866 366.1823235089672" stroke-miterlimit="10"></path></g><g transform="translate(2,2) scale(1,1)"><rect fill="#C0C0C0" stroke="none" x="39" y="943" width="132" height="57" opacity="0.2"></rect></g><g transform="translate(2,2) scale(1,1)"><rect fill="#ffffff" stroke="none" x="32" y="936" width="132" height="57"></rect></g><g transform="translate(2,2) scale(1,1)"><path fill="none" stroke="#000000" d="M 32 936 L 164 936 L 164 993 L 32 993 L 32 936 Z Z" stroke-miterlimit="10"></path></g><g transform="translate(2,2) scale(1,1)"><path fill="none" stroke="#000000" d="M 32 974 L 164 974" stroke-miterlimit="10"></path></g><g transform="translate(2,2) scale(1,1)"><path fill="none" stroke="#000000" d="M 32 984 L 164 984" stroke-miterlimit="10"></path></g><g transform="translate(2,2) scale(1,1)"><g><path fill="none" stroke="none"></path><text fill="#000000" stroke="none" font-family="Arial" font-size="13px" font-style="normal" font-weight="normal" text-decoration="none" x="67.5" y="953.5">«abstract»</text></g></g><g transform="translate(2,2) scale(1,1)"><g><path fill="none" stroke="none"></path><text fill="#000000" stroke="none" font-family="Arial" font-size="13px" font-style="normal" font-weight="bold" text-decoration="none" x="43" y="968.5">SensorDataEmitter</text></g></g><g transform="translate(2,2) scale(1,1)"><path fill="none" stroke="#000000" d="M 98 935 L 105 354" stroke-miterlimit="10"></path></g><g transform="translate(2,2) scale(1,1)"><path fill="#FFFFFF" stroke="none" d="M 113.17355856946368 374.42530147418995 L 105 354 L 96.33670951071387 374.2224478710725"></path></g><g transform="translate(2,2) scale(1,1)"><path fill="none" stroke="#000000" d="M 113.17355856946368 374.42530147418995 L 105 354 L 96.33670951071387 374.2224478710725 L 113.17355856946368 374.42530147418995" stroke-miterlimit="10"></path></g><g transform="translate(2,2) scale(1,1)"><rect fill="#C0C0C0" stroke="none" x="423" y="950" width="119" height="44" opacity="0.2"></rect></g><g transform="translate(2,2) scale(1,1)"><rect fill="#ffffff" stroke="none" x="416" y="943" width="119" height="44"></rect></g><g transform="translate(2,2) scale(1,1)"><path fill="none" stroke="#000000" d="M 416 943 L 535 943 L 535 987 L 416 987 L 416 943 Z Z" stroke-miterlimit="10"></path></g><g transform="translate(2,2) scale(1,1)"><path fill="none" stroke="#000000" d="M 416 968 L 535 968" stroke-miterlimit="10"></path></g><g transform="translate(2,2) scale(1,1)"><path fill="none" stroke="#000000" d="M 416 978 L 535 978" stroke-miterlimit="10"></path></g><g transform="translate(2,2) scale(1,1)"><g><path fill="none" stroke="none"></path><text fill="#000000" stroke="none" font-family="Arial" font-size="13px" font-style="normal" font-weight="bold" text-decoration="none" x="424.5" y="962.5">LawitzkiCompass</text></g></g><g transform="translate(2,2) scale(1,1)"><path fill="none" stroke="#000000" d="M 475 942 L 475 626" stroke-miterlimit="10"></path></g><g transform="translate(2,2) scale(1,1)"><path fill="#FFFFFF" stroke="none" d="M 483.419035512032 646.3253497152483 L 475 626 L 466.580964487968 646.3253497152483"></path></g><g transform="translate(2,2) scale(1,1)"><path fill="none" stroke="#000000" d="M 483.419035512032 646.3253497152483 L 475 626 L 466.580964487968 646.3253497152483 L 483.419035512032 646.3253497152483" stroke-miterlimit="10"></path></g><g transform="translate(2,2) scale(1,1)"><rect fill="#C0C0C0" stroke="none" x="423" y="1047" width="122" height="44" opacity="0.2"></rect></g><g transform="translate(2,2) scale(1,1)"><rect fill="#ffffff" stroke="none" x="416" y="1040" width="122" height="44"></rect></g><g transform="translate(2,2) scale(1,1)"><path fill="none" stroke="#000000" d="M 416 1040 L 538 1040 L 538 1084 L 416 1084 L 416 1040 Z Z" stroke-miterlimit="10"></path></g><g transform="translate(2,2) scale(1,1)"><path fill="none" stroke="#000000" d="M 416 1065 L 538 1065" stroke-miterlimit="10"></path></g><g transform="translate(2,2) scale(1,1)"><path fill="none" stroke="#000000" d="M 416 1075 L 538 1075" stroke-miterlimit="10"></path></g><g transform="translate(2,2) scale(1,1)"><g><path fill="none" stroke="none"></path><text fill="#000000" stroke="none" font-family="Arial" font-size="13px" font-style="normal" font-weight="bold" text-decoration="none" x="427" y="1059.5">RelativeCompass</text></g></g><g transform="translate(2,2) scale(1,1)"><path fill="none" stroke="#000000" d="M 477 1039 L 475 988" stroke-miterlimit="10"></path></g><g transform="translate(2,2) scale(1,1)"><path fill="#FFFFFF" stroke="none" d="M 484.2090296248391 1007.979834167701 L 475 988 L 467.3838910689074 1008.6396435228356"></path></g><g transform="translate(2,2) scale(1,1)"><path fill="none" stroke="#000000" d="M 484.2090296248391 1007.979834167701 L 475 988 L 467.3838910689074 1008.6396435228356 L 484.2090296248391 1007.979834167701" stroke-miterlimit="10"></path></g><g transform="translate(2,2) scale(1,1)"><rect fill="#C0C0C0" stroke="none" x="591" y="951" width="130" height="44" opacity="0.2"></rect></g><g transform="translate(2,2) scale(1,1)"><rect fill="#ffffff" stroke="none" x="584" y="944" width="130" height="44"></rect></g><g transform="translate(2,2) scale(1,1)"><path fill="none" stroke="#000000" d="M 584 944 L 714 944 L 714 988 L 584 988 L 584 944 Z Z" stroke-miterlimit="10"></path></g><g transform="translate(2,2) scale(1,1)"><path fill="none" stroke="#000000" d="M 584 969 L 714 969" stroke-miterlimit="10"></path></g><g transform="translate(2,2) scale(1,1)"><path fill="none" stroke="#000000" d="M 584 979 L 714 979" stroke-miterlimit="10"></path></g><g transform="translate(2,2) scale(1,1)"><g><path fill="none" stroke="none"></path><text fill="#000000" stroke="none" font-family="Arial" font-size="13px" font-style="normal" font-weight="bold" text-decoration="none" x="592.5" y="963.5">FasterStepDetector</text></g></g><g transform="translate(2,2) scale(1,1)"><path fill="none" stroke="#000000" d="M 645 943 L 587 626" stroke-miterlimit="10"></path></g><g transform="translate(2,2) scale(1,1)"><path fill="#FFFFFF" stroke="none" d="M 598.9396664008628 644.478213285816 L 587 626 L 582.3765491585435 647.5086889957671"></path></g><g transform="translate(2,2) scale(1,1)"><path fill="none" stroke="#000000" d="M 598.9396664008628 644.478213285816 L 587 626 L 582.3765491585435 647.5086889957671 L 598.9396664008628 644.478213285816" stroke-miterlimit="10"></path></g><g transform="translate(2,2) scale(1,1)"><rect fill="#C0C0C0" stroke="none" x="711" y="727" width="101" height="44" opacity="0.2"></rect></g><g transform="translate(2,2) scale(1,1)"><rect fill="#ffffff" stroke="none" x="704" y="720" width="101" height="44"></rect></g><g transform="translate(2,2) scale(1,1)"><path fill="none" stroke="#000000" d="M 704 720 L 805 720 L 805 764 L 704 764 L 704 720 Z Z" stroke-miterlimit="10"></path></g><g transform="translate(2,2) scale(1,1)"><path fill="none" stroke="#000000" d="M 704 745 L 805 745" stroke-miterlimit="10"></path></g><g transform="translate(2,2) scale(1,1)"><path fill="none" stroke="#000000" d="M 704 755 L 805 755" stroke-miterlimit="10"></path></g><g transform="translate(2,2) scale(1,1)"><g><path fill="none" stroke="none"></path><text fill="#000000" stroke="none" font-family="Arial" font-size="13px" font-style="normal" font-weight="bold" text-decoration="none" x="711.5" y="739.5">FixedStepPDR</text></g></g><g transform="translate(2,2) scale(1,1)"><path fill="none" stroke="#000000" d="M 754 719 L 755 626" stroke-miterlimit="10"></path></g><g transform="translate(2,2) scale(1,1)"><path fill="#FFFFFF" stroke="none" d="M 763.200009334476 646.4146968362135 L 755 626 L 746.3629116374469 646.2336527749551"></path></g><g transform="translate(2,2) scale(1,1)"><path fill="none" stroke="#000000" d="M 763.200009334476 646.4146968362135 L 755 626 L 746.3629116374469 646.2336527749551 L 763.200009334476 646.4146968362135" stroke-miterlimit="10"></path></g><g transform="translate(2,2) scale(1,1)"><rect fill="#C0C0C0" stroke="none" x="887" y="727" width="89" height="44" opacity="0.2"></rect></g><g transform="translate(2,2) scale(1,1)"><rect fill="#ffffff" stroke="none" x="880" y="720" width="89" height="44"></rect></g><g transform="translate(2,2) scale(1,1)"><path fill="none" stroke="#000000" d="M 880 720 L 969 720 L 969 764 L 880 764 L 880 720 Z Z" stroke-miterlimit="10"></path></g><g transform="translate(2,2) scale(1,1)"><path fill="none" stroke="#000000" d="M 880 745 L 969 745" stroke-miterlimit="10"></path></g><g transform="translate(2,2) scale(1,1)"><path fill="none" stroke="#000000" d="M 880 755 L 969 755" stroke-miterlimit="10"></path></g><g transform="translate(2,2) scale(1,1)"><g><path fill="none" stroke="none"></path><text fill="#000000" stroke="none" font-family="Arial" font-size="13px" font-style="normal" font-weight="bold" text-decoration="none" x="886.5" y="739.5">PDRStrategy</text></g></g><g transform="translate(2,2) scale(1,1)"><path fill="none" stroke="#000000" d="M 956 719 L 1107 610" stroke-miterlimit="10"></path></g><g transform="translate(2,2) scale(1,1)"><path fill="#FFFFFF" stroke="none" d="M 1095.4473987567308 628.7226441645943 L 1107 610 L 1085.5921686700128 615.0699859710676"></path></g><g transform="translate(2,2) scale(1,1)"><path fill="none" stroke="#000000" d="M 1095.4473987567308 628.7226441645943 L 1107 610 L 1085.5921686700128 615.0699859710676 L 1095.4473987567308 628.7226441645943" stroke-miterlimit="10"></path></g><g transform="translate(2,2) scale(1,1)"><rect fill="#C0C0C0" stroke="none" x="986" y="727" width="132" height="44" opacity="0.2"></rect></g><g transform="translate(2,2) scale(1,1)"><rect fill="#ffffff" stroke="none" x="979" y="720" width="132" height="44"></rect></g><g transform="translate(2,2) scale(1,1)"><path fill="none" stroke="#000000" d="M 979 720 L 1111 720 L 1111 764 L 979 764 L 979 720 Z Z" stroke-miterlimit="10"></path></g><g transform="translate(2,2) scale(1,1)"><path fill="none" stroke="#000000" d="M 979 745 L 1111 745" stroke-miterlimit="10"></path></g><g transform="translate(2,2) scale(1,1)"><path fill="none" stroke="#000000" d="M 979 755 L 1111 755" stroke-miterlimit="10"></path></g><g transform="translate(2,2) scale(1,1)"><g><path fill="none" stroke="none"></path><text fill="#000000" stroke="none" font-family="Arial" font-size="13px" font-style="normal" font-weight="bold" text-decoration="none" x="990" y="739.5">FingerprintStrategy</text></g></g><g transform="translate(2,2) scale(1,1)"><path fill="none" stroke="#000000" d="M 1060 719 L 1129 610" stroke-miterlimit="10"></path></g><g transform="translate(2,2) scale(1,1)"><path fill="#FFFFFF" stroke="none" d="M 1125.2421729105567 631.676686452635 L 1129 610 L 1111.0150829982153 622.6705469668409"></path></g><g transform="translate(2,2) scale(1,1)"><path fill="none" stroke="#000000" d="M 1125.2421729105567 631.676686452635 L 1129 610 L 1111.0150829982153 622.6705469668409 L 1125.2421729105567 631.676686452635" stroke-miterlimit="10"></path></g><g transform="translate(2,2) scale(1,1)"><rect fill="#C0C0C0" stroke="none" x="1128" y="727" width="144" height="44" opacity="0.2"></rect></g><g transform="translate(2,2) scale(1,1)"><rect fill="#ffffff" stroke="none" x="1121" y="720" width="144" height="44"></rect></g><g transform="translate(2,2) scale(1,1)"><path fill="none" stroke="#000000" d="M 1121 720 L 1265 720 L 1265 764 L 1121 764 L 1121 720 Z Z" stroke-miterlimit="10"></path></g><g transform="translate(2,2) scale(1,1)"><path fill="none" stroke="#000000" d="M 1121 745 L 1265 745" stroke-miterlimit="10"></path></g><g transform="translate(2,2) scale(1,1)"><path fill="none" stroke="#000000" d="M 1121 755 L 1265 755" stroke-miterlimit="10"></path></g><g transform="translate(2,2) scale(1,1)"><g><path fill="none" stroke="none"></path><text fill="#000000" stroke="none" font-family="Arial" font-size="13px" font-style="normal" font-weight="bold" text-decoration="none" x="1132" y="739.5">ParticleFilterStrategy</text></g></g><g transform="translate(2,2) scale(1,1)"><path fill="none" stroke="#000000" d="M 1187 719 L 1156 610" stroke-miterlimit="10"></path></g><g transform="translate(2,2) scale(1,1)"><path fill="#FFFFFF" stroke="none" d="M 1169.6580118642132 627.2469913873988 L 1156 610 L 1153.4622082416158 631.8531373718072"></path></g><g transform="translate(2,2) scale(1,1)"><path fill="none" stroke="#000000" d="M 1169.6580118642132 627.2469913873988 L 1156 610 L 1153.4622082416158 631.8531373718072 L 1169.6580118642132 627.2469913873988" stroke-miterlimit="10"></path></g><g transform="translate(2,2) scale(1,1)"><rect fill="#C0C0C0" stroke="none" x="1282" y="727" width="144" height="44" opacity="0.2"></rect></g><g transform="translate(2,2) scale(1,1)"><rect fill="#ffffff" stroke="none" x="1275" y="720" width="144" height="44"></rect></g><g transform="translate(2,2) scale(1,1)"><path fill="none" stroke="#000000" d="M 1275 720 L 1419 720 L 1419 764 L 1275 764 L 1275 720 Z Z" stroke-miterlimit="10"></path></g><g transform="translate(2,2) scale(1,1)"><path fill="none" stroke="#000000" d="M 1275 745 L 1419 745" stroke-miterlimit="10"></path></g><g transform="translate(2,2) scale(1,1)"><path fill="none" stroke="#000000" d="M 1275 755 L 1419 755" stroke-miterlimit="10"></path></g><g transform="translate(2,2) scale(1,1)"><g><path fill="none" stroke="none"></path><text fill="#000000" stroke="none" font-family="Arial" font-size="13px" font-style="normal" font-weight="bold" text-decoration="none" x="1286" y="739.5">KalmanFilterStrategy</text></g></g><g transform="translate(2,2) scale(1,1)"><path fill="none" stroke="#000000" d="M 1319 719 L 1185 610" stroke-miterlimit="10"></path></g><g transform="translate(2,2) scale(1,1)"><path fill="#FFFFFF" stroke="none" d="M 1206.0802381317196 616.2947248001798 L 1185 610 L 1195.454936740056 629.3570219238763"></path></g><g transform="translate(2,2) scale(1,1)"><path fill="none" stroke="#000000" d="M 1206.0802381317196 616.2947248001798 L 1185 610 L 1195.454936740056 629.3570219238763 L 1206.0802381317196 616.2947248001798" stroke-miterlimit="10"></path></g><g transform="translate(2,2) scale(1,1)"><rect fill="#C0C0C0" stroke="none" x="263" y="951" width="87" height="44" opacity="0.2"></rect></g><g transform="translate(2,2) scale(1,1)"><rect fill="#ffffff" stroke="none" x="256" y="944" width="87" height="44"></rect></g><g transform="translate(2,2) scale(1,1)"><path fill="none" stroke="#000000" d="M 256 944 L 343 944 L 343 988 L 256 988 L 256 944 Z Z" stroke-miterlimit="10"></path></g><g transform="translate(2,2) scale(1,1)"><path fill="none" stroke="#000000" d="M 256 969 L 343 969" stroke-miterlimit="10"></path></g><g transform="translate(2,2) scale(1,1)"><path fill="none" stroke="#000000" d="M 256 979 L 343 979" stroke-miterlimit="10"></path></g><g transform="translate(2,2) scale(1,1)"><g><path fill="none" stroke="none"></path><text fill="#000000" stroke="none" font-family="Arial" font-size="13px" font-style="normal" font-weight="bold" text-decoration="none" x="264.5" y="963.5">WifiScanner</text></g></g><g transform="translate(2,2) scale(1,1)"><path fill="none" stroke="#000000" d="M 292 943 L 114 354" stroke-miterlimit="10"></path></g><g transform="translate(2,2) scale(1,1)"><path fill="#FFFFFF" stroke="none" d="M 127.93889255684839 371.02078947313066 L 114 354 L 111.82076979157887 375.8918011067775"></path></g><g transform="translate(2,2) scale(1,1)"><path fill="none" stroke="#000000" d="M 127.93889255684839 371.02078947313066 L 114 354 L 111.82076979157887 375.8918011067775 L 127.93889255684839 371.02078947313066" stroke-miterlimit="10"></path></g><g transform="translate(2,2) scale(1,1)"><rect fill="#C0C0C0" stroke="none" x="47" y="1247" width="152" height="44" opacity="0.2"></rect></g><g transform="translate(2,2) scale(1,1)"><rect fill="#ffffff" stroke="none" x="40" y="1240" width="152" height="44"></rect></g><g transform="translate(2,2) scale(1,1)"><path fill="none" stroke="#000000" d="M 40 1240 L 192 1240 L 192 1284 L 40 1284 L 40 1240 Z Z" stroke-miterlimit="10"></path></g><g transform="translate(2,2) scale(1,1)"><path fill="none" stroke="#000000" d="M 40 1265 L 192 1265" stroke-miterlimit="10"></path></g><g transform="translate(2,2) scale(1,1)"><path fill="none" stroke="#000000" d="M 40 1275 L 192 1275" stroke-miterlimit="10"></path></g><g transform="translate(2,2) scale(1,1)"><g><path fill="none" stroke="none"></path><text fill="#000000" stroke="none" font-family="Arial" font-size="13px" font-style="normal" font-weight="bold" text-decoration="none" x="52" y="1259.5">AccelerometerHandler</text></g></g><g transform="translate(2,2) scale(1,1)"><path fill="none" stroke="#000000" d="M 115 1239 L 100 994" stroke-miterlimit="10"></path></g><g transform="translate(2,2) scale(1,1)"><path fill="#FFFFFF" stroke="none" d="M 109.64538402452362 1013.7728745259627 L 100 994 L 92.83878279003008 1014.801850111748"></path></g><g transform="translate(2,2) scale(1,1)"><path fill="none" stroke="#000000" d="M 109.64538402452362 1013.7728745259627 L 100 994 L 92.83878279003008 1014.801850111748 L 109.64538402452362 1013.7728745259627" stroke-miterlimit="10"></path></g><g transform="translate(2,2) scale(1,1)"><rect fill="#C0C0C0" stroke="none" x="207" y="1247" width="126" height="44" opacity="0.2"></rect></g><g transform="translate(2,2) scale(1,1)"><rect fill="#ffffff" stroke="none" x="200" y="1240" width="126" height="44"></rect></g><g transform="translate(2,2) scale(1,1)"><path fill="none" stroke="#000000" d="M 200 1240 L 326 1240 L 326 1284 L 200 1284 L 200 1240 Z Z" stroke-miterlimit="10"></path></g><g transform="translate(2,2) scale(1,1)"><path fill="none" stroke="#000000" d="M 200 1265 L 326 1265" stroke-miterlimit="10"></path></g><g transform="translate(2,2) scale(1,1)"><path fill="none" stroke="#000000" d="M 200 1275 L 326 1275" stroke-miterlimit="10"></path></g><g transform="translate(2,2) scale(1,1)"><g><path fill="none" stroke="none"></path><text fill="#000000" stroke="none" font-family="Arial" font-size="13px" font-style="normal" font-weight="bold" text-decoration="none" x="209.5" y="1259.5">GyroscopeHandler</text></g></g><g transform="translate(2,2) scale(1,1)"><path fill="none" stroke="#000000" d="M 250 1239 L 115 994" stroke-miterlimit="10"></path></g><g transform="translate(2,2) scale(1,1)"><path fill="#FFFFFF" stroke="none" d="M 132.18282377738973 1007.7386523005414 L 115 994 L 117.43539700684879 1015.8647854190027"></path></g><g transform="translate(2,2) scale(1,1)"><path fill="none" stroke="#000000" d="M 132.18282377738973 1007.7386523005414 L 115 994 L 117.43539700684879 1015.8647854190027 L 132.18282377738973 1007.7386523005414" stroke-miterlimit="10"></path></g><g transform="translate(2,2) scale(1,1)"><rect fill="#C0C0C0" stroke="none" x="343" y="1247" width="151" height="44" opacity="0.2"></rect></g><g transform="translate(2,2) scale(1,1)"><rect fill="#ffffff" stroke="none" x="336" y="1240" width="151" height="44"></rect></g><g transform="translate(2,2) scale(1,1)"><path fill="none" stroke="#000000" d="M 336 1240 L 487 1240 L 487 1284 L 336 1284 L 336 1240 Z Z" stroke-miterlimit="10"></path></g><g transform="translate(2,2) scale(1,1)"><path fill="none" stroke="#000000" d="M 336 1265 L 487 1265" stroke-miterlimit="10"></path></g><g transform="translate(2,2) scale(1,1)"><path fill="none" stroke="#000000" d="M 336 1275 L 487 1275" stroke-miterlimit="10"></path></g><g transform="translate(2,2) scale(1,1)"><g><path fill="none" stroke="none"></path><text fill="#000000" stroke="none" font-family="Arial" font-size="13px" font-style="normal" font-weight="bold" text-decoration="none" x="348" y="1259.5">MagnetometerHandler</text></g></g><g transform="translate(2,2) scale(1,1)"><path fill="none" stroke="#000000" d="M 387 1239 L 130 994" stroke-miterlimit="10"></path></g><g transform="translate(2,2) scale(1,1)"><path fill="#FFFFFF" stroke="none" d="M 150.52073942212962 1001.9309049653274 L 130 994 L 138.90235731842088 1014.118350682279"></path></g><g transform="translate(2,2) scale(1,1)"><path fill="none" stroke="#000000" d="M 150.52073942212962 1001.9309049653274 L 130 994 L 138.90235731842088 1014.118350682279 L 150.52073942212962 1001.9309049653274" stroke-miterlimit="10"></path></g><g transform="translate(2,2) scale(1,1)"><rect fill="#C0C0C0" stroke="none" x="503" y="1247" width="126" height="44" opacity="0.2"></rect></g><g transform="translate(2,2) scale(1,1)"><rect fill="#ffffff" stroke="none" x="496" y="1240" width="126" height="44"></rect></g><g transform="translate(2,2) scale(1,1)"><path fill="none" stroke="#000000" d="M 496 1240 L 622 1240 L 622 1284 L 496 1284 L 496 1240 Z Z" stroke-miterlimit="10"></path></g><g transform="translate(2,2) scale(1,1)"><path fill="none" stroke="#000000" d="M 496 1265 L 622 1265" stroke-miterlimit="10"></path></g><g transform="translate(2,2) scale(1,1)"><path fill="none" stroke="#000000" d="M 496 1275 L 622 1275" stroke-miterlimit="10"></path></g><g transform="translate(2,2) scale(1,1)"><g><path fill="none" stroke="none"></path><text fill="#000000" stroke="none" font-family="Arial" font-size="13px" font-style="normal" font-weight="bold" text-decoration="none" x="507" y="1259.5">BarometerHandler</text></g></g><g transform="translate(2,2) scale(1,1)"><path fill="none" stroke="#000000" d="M 523 1239 L 144 994" stroke-miterlimit="10"></path></g><g transform="translate(2,2) scale(1,1)"><path fill="#FFFFFF" stroke="none" d="M 165.63994607119417 997.9639291158909 L 144 994 L 156.49883145346337 1012.1046737694419"></path></g><g transform="translate(2,2) scale(1,1)"><path fill="none" stroke="#000000" d="M 165.63994607119417 997.9639291158909 L 144 994 L 156.49883145346337 1012.1046737694419 L 165.63994607119417 997.9639291158909" stroke-miterlimit="10"></path></g></g></svg>