<svg version="1.1" xmlns="http://www.w3.org/2000/svg" xmlns:xlink="http://www.w3.org/1999/xlink" width="1228" height="724"><defs></defs><g><g transform="translate(-14,-14) scale(1,1)"><rect fill="#C0C0C0" stroke="none" x="31" y="31" width="483.20000000000005" height="15" opacity="0.2"></rect></g><g transform="translate(-14,-14) scale(1,1)"><rect fill="#C0C0C0" stroke="none" x="31" y="45" width="1208" height="690" opacity="0.2"></rect></g><g transform="translate(-14,-14) scale(1,1)"><rect fill="#ffffff" stroke="none" x="24" y="39" width="1208" height="689"></rect></g><g transform="translate(-14,-14) scale(1,1)"><path fill="none" stroke="#000000" d="M 24 39 L 1232 39 L 1232 728 L 24 728 L 24 39 Z Z" stroke-miterlimit="10"></path></g><g transform="translate(-14,-14) scale(1,1)"><rect fill="#ffffff" stroke="none" x="24" y="24" width="483.2" height="15"></rect></g><g transform="translate(-14,-14) scale(1,1)"><path fill="none" stroke="#000000" d="M 24 24 L 507.2 24 L 507.2 39 L 24 39 L 24 24 Z Z" stroke-miterlimit="10"></path></g><g transform="translate(-14,-14) scale(1,1)"><rect fill="#ffffff" stroke="none" x="24" y="38" width="1208" height="690"></rect></g><g transform="translate(-14,-14) scale(1,1)"><path fill="none" stroke="#000000" d="M 24 38 L 1232 38 L 1232 728 L 24 728 L 24 38 Z Z" stroke-miterlimit="10"></path></g><g transform="translate(-14,-14) scale(1,1)"><g><path fill="none" stroke="none"></path><text fill="#000000" stroke="none" font-family="Arial" font-size="13px" font-style="normal" font-weight="bold" text-decoration="none" x="536.5" y="58.5">it.cnr.isti.wnlab.indoornavigation</text></g></g><g transform="translate(-14,-14) scale(1,1)"><rect fill="#C0C0C0" stroke="none" x="55" y="103" width="457.6" height="15" opacity="0.2"></rect></g><g transform="translate(-14,-14) scale(1,1)"><rect fill="#C0C0C0" stroke="none" x="55" y="117" width="1144" height="594" opacity="0.2"></rect></g><g transform="translate(-14,-14) scale(1,1)"><rect fill="#ffffff" stroke="none" x="48" y="111" width="1144" height="593"></rect></g><g transform="translate(-14,-14) scale(1,1)"><path fill="none" stroke="#000000" d="M 48 111 L 1192 111 L 1192 704 L 48 704 L 48 111 Z Z" stroke-miterlimit="10"></path></g><g transform="translate(-14,-14) scale(1,1)"><rect fill="#ffffff" stroke="none" x="48" y="96" width="457.6" height="15"></rect></g><g transform="translate(-14,-14) scale(1,1)"><path fill="none" stroke="#000000" d="M 48 96 L 505.6 96 L 505.6 111 L 48 111 L 48 96 Z Z" stroke-miterlimit="10"></path></g><g transform="translate(-14,-14) scale(1,1)"><rect fill="#ffffff" stroke="none" x="48" y="110" width="1144" height="594"></rect></g><g transform="translate(-14,-14) scale(1,1)"><path fill="none" stroke="#000000" d="M 48 110 L 1192 110 L 1192 704 L 48 704 L 48 110 Z Z" stroke-miterlimit="10"></path></g><g transform="translate(-14,-14) scale(1,1)"><g><path fill="none" stroke="none"></path><text fill="#000000" stroke="none" font-family="Arial" font-size="13px" font-style="normal" font-weight="bold" text-decoration="none" x="604.5" y="130.5">filters</text></g></g><g transform="translate(-14,-14) scale(1,1)"><rect fill="#C0C0C0" stroke="none" x="527" y="215" width="262" height="15" opacity="0.2"></rect></g><g transform="translate(-14,-14) scale(1,1)"><rect fill="#C0C0C0" stroke="none" x="527" y="229" width="655" height="465" opacity="0.2"></rect></g><g transform="translate(-14,-14) scale(1,1)"><rect fill="#ffffff" stroke="none" x="520" y="223" width="655" height="464"></rect></g><g transform="translate(-14,-14) scale(1,1)"><path fill="none" stroke="#000000" d="M 520 223 L 1175 223 L 1175 687 L 520 687 L 520 223 Z Z" stroke-miterlimit="10"></path></g><g transform="translate(-14,-14) scale(1,1)"><rect fill="#ffffff" stroke="none" x="520" y="208" width="262" height="15"></rect></g><g transform="translate(-14,-14) scale(1,1)"><path fill="none" stroke="#000000" d="M 520 208 L 782 208 L 782 223 L 520 223 L 520 208 Z Z" stroke-miterlimit="10"></path></g><g transform="translate(-14,-14) scale(1,1)"><rect fill="#ffffff" stroke="none" x="520" y="222" width="655" height="465"></rect></g><g transform="translate(-14,-14) scale(1,1)"><path fill="none" stroke="#000000" d="M 520 222 L 1175 222 L 1175 687 L 520 687 L 520 222 Z Z" stroke-miterlimit="10"></path></g><g transform="translate(-14,-14) scale(1,1)"><g><path fill="none" stroke="none"></path><text fill="#000000" stroke="none" font-family="Arial" font-size="13px" font-style="normal" font-weight="bold" text-decoration="none" x="814.5" y="242.5">particlefilter</text></g></g><g transform="translate(-14,-14) scale(1,1)"><rect fill="#C0C0C0" stroke="none" x="103" y="575" width="142" height="57" opacity="0.2"></rect></g><g transform="translate(-14,-14) scale(1,1)"><rect fill="#ffffff" stroke="none" x="96" y="568" width="142" height="57"></rect></g><g transform="translate(-14,-14) scale(1,1)"><path fill="none" stroke="#000000" d="M 96 568 L 238 568 L 238 625 L 96 625 L 96 568 Z Z" stroke-miterlimit="10"></path></g><g transform="translate(-14,-14) scale(1,1)"><path fill="none" stroke="#000000" d="M 96 606 L 238 606" stroke-miterlimit="10"></path></g><g transform="translate(-14,-14) scale(1,1)"><path fill="none" stroke="#000000" d="M 96 616 L 238 616" stroke-miterlimit="10"></path></g><g transform="translate(-14,-14) scale(1,1)"><g><path fill="none" stroke="none"></path><text fill="#000000" stroke="none" font-family="Arial" font-size="13px" font-style="normal" font-weight="normal" text-decoration="none" x="136.5" y="585.5">«abstract»</text></g></g><g transform="translate(-14,-14) scale(1,1)"><g><path fill="none" stroke="none"></path><text fill="#000000" stroke="none" font-family="Arial" font-size="13px" font-style="normal" font-weight="bold" text-decoration="none" x="106" y="600.5">AbstractKalmanFilter</text></g></g><g transform="translate(-14,-14) scale(1,1)"><path fill="#C0C0C0" stroke="none" d="M 162.5 418.5 C 162.5 412.1487248 167.6487248 407 174 407 C 180.3512752 407 185.5 412.1487248 185.5 418.5 C 185.5 424.8512752 180.3512752 430 174 430 C 167.6487248 430 162.5 424.8512752 162.5 418.5 Z" opacity="0.2"></path></g><g transform="translate(-14,-14) scale(1,1)"><path fill="#ffffff" stroke="none" d="M 155.5 411.5 C 155.5 405.1487248 160.6487248 400 167 400 C 173.3512752 400 178.5 405.1487248 178.5 411.5 C 178.5 417.8512752 173.3512752 423 167 423 C 160.6487248 423 155.5 417.8512752 155.5 411.5 Z"></path></g><g transform="translate(-14,-14) scale(1,1)"><path fill="none" stroke="#000000" d="M 155.5 411.5 C 155.5 405.1487248 160.6487248 400 167 400 C 173.3512752 400 178.5 405.1487248 178.5 411.5 C 178.5 417.8512752 173.3512752 423 167 423 C 160.6487248 423 155.5 417.8512752 155.5 411.5 Z" stroke-miterlimit="10"></path></g><g transform="translate(-14,-14) scale(1,1)"><path fill="none" stroke="#000000" d="M 96 448 L 238 448" stroke-miterlimit="10"></path></g><g transform="translate(-14,-14) scale(1,1)"><g><path fill="none" stroke="none"></path><text fill="#000000" stroke="none" font-family="Arial" font-size="13px" font-style="normal" font-weight="bold" text-decoration="none" x="128.5" y="442.5">Kalman Filter</text></g></g><g transform="translate(-14,-14) scale(1,1)"><g><path fill="none" stroke="none"></path><text fill="#000000" stroke="none" font-family="Arial" font-size="13px" font-style="normal" font-weight="normal" text-decoration="none" x="101" y="465.5">+predict()</text></g></g><g transform="translate(-14,-14) scale(1,1)"><g><path fill="none" stroke="none"></path><text fill="#000000" stroke="none" font-family="Arial" font-size="13px" font-style="normal" font-weight="normal" text-decoration="none" x="101" y="480.5">+update()</text></g></g><g transform="translate(-14,-14) scale(1,1)"><g><path fill="none" stroke="none"></path><text fill="#000000" stroke="none" font-family="Arial" font-size="13px" font-style="normal" font-weight="normal" text-decoration="none" x="101" y="495.5">+getStateVector()</text></g></g><g transform="translate(-14,-14) scale(1,1)"><g><path fill="none" stroke="none"></path><text fill="#000000" stroke="none" font-family="Arial" font-size="13px" font-style="normal" font-weight="normal" text-decoration="none" x="101" y="510.5">+getCovarianceMatrix()</text></g></g><g transform="translate(-14,-14) scale(1,1)"><path fill="none" stroke="#000000" d="M 167 567 L 167 423" stroke-miterlimit="10"></path></g><g transform="translate(-14,-14) scale(1,1)"><path fill="#C0C0C0" stroke="none" d="M 386 298.5 C 386 292.1487248 391.1487248 287 397.5 287 C 403.8512752 287 409 292.1487248 409 298.5 C 409 304.8512752 403.8512752 310 397.5 310 C 391.1487248 310 386 304.8512752 386 298.5 Z" opacity="0.2"></path></g><g transform="translate(-14,-14) scale(1,1)"><path fill="#ffffff" stroke="none" d="M 379 291.5 C 379 285.1487248 384.1487248 280 390.5 280 C 396.8512752 280 402 285.1487248 402 291.5 C 402 297.8512752 396.8512752 303 390.5 303 C 384.1487248 303 379 297.8512752 379 291.5 Z"></path></g><g transform="translate(-14,-14) scale(1,1)"><path fill="none" stroke="#000000" d="M 379 291.5 C 379 285.1487248 384.1487248 280 390.5 280 C 396.8512752 280 402 285.1487248 402 291.5 C 402 297.8512752 396.8512752 303 390.5 303 C 384.1487248 303 379 297.8512752 379 291.5 Z" stroke-miterlimit="10"></path></g><g transform="translate(-14,-14) scale(1,1)"><g><path fill="none" stroke="none"></path><text fill="#000000" stroke="none" font-family="Arial" font-size="13px" font-style="normal" font-weight="bold" text-decoration="none" x="329.5" y="322.5">StateEstimationFilter</text></g></g><g transform="translate(-14,-14) scale(1,1)"><path fill="none" stroke="#000000" d="M 239 408 L 354 329" stroke-miterlimit="10"></path></g><g transform="translate(-14,-14) scale(1,1)"><path fill="#FFFFFF" stroke="none" d="M 342.01387523885995 347.4481113724518 L 354 329 L 332.47974524970454 333.5693145527952"></path></g><g transform="translate(-14,-14) scale(1,1)"><path fill="none" stroke="#000000" d="M 342.01387523885995 347.4481113724518 L 354 329 L 332.47974524970454 333.5693145527952 L 342.01387523885995 347.4481113724518" stroke-miterlimit="10"></path></g><g transform="translate(-14,-14) scale(1,1)"><rect fill="#C0C0C0" stroke="none" x="575" y="399" width="91" height="44" opacity="0.2"></rect></g><g transform="translate(-14,-14) scale(1,1)"><rect fill="#ffffff" stroke="none" x="568" y="392" width="91" height="44"></rect></g><g transform="translate(-14,-14) scale(1,1)"><path fill="none" stroke="#000000" d="M 568 392 L 659 392 L 659 436 L 568 436 L 568 392 Z Z" stroke-miterlimit="10"></path></g><g transform="translate(-14,-14) scale(1,1)"><path fill="none" stroke="#000000" d="M 568 417 L 659 417" stroke-miterlimit="10"></path></g><g transform="translate(-14,-14) scale(1,1)"><path fill="none" stroke="#000000" d="M 568 427 L 659 427" stroke-miterlimit="10"></path></g><g transform="translate(-14,-14) scale(1,1)"><g><path fill="none" stroke="none"></path><text fill="#000000" stroke="none" font-family="Arial" font-size="13px" font-style="normal" font-weight="bold" text-decoration="none" x="577" y="411.5">ParticleFilter</text></g></g><g transform="translate(-14,-14) scale(1,1)"><path fill="none" stroke="#000000" d="M 567 391 L 402 299.94117647058823" stroke-miterlimit="10"></path></g><g transform="translate(-14,-14) scale(1,1)"><path fill="#C0C0C0" stroke="none" d="M 800 402.5 C 800 396.1487248 805.1487248 391 811.5 391 C 817.8512752 391 823 396.1487248 823 402.5 C 823 408.8512752 817.8512752 414 811.5 414 C 805.1487248 414 800 408.8512752 800 402.5 Z" opacity="0.2"></path></g><g transform="translate(-14,-14) scale(1,1)"><path fill="#ffffff" stroke="none" d="M 793 395.5 C 793 389.1487248 798.1487248 384 804.5 384 C 810.8512752 384 816 389.1487248 816 395.5 C 816 401.8512752 810.8512752 407 804.5 407 C 798.1487248 407 793 401.8512752 793 395.5 Z"></path></g><g transform="translate(-14,-14) scale(1,1)"><path fill="none" stroke="#000000" d="M 793 395.5 C 793 389.1487248 798.1487248 384 804.5 384 C 810.8512752 384 816 389.1487248 816 395.5 C 816 401.8512752 810.8512752 407 804.5 407 C 798.1487248 407 793 401.8512752 793 395.5 Z" stroke-miterlimit="10"></path></g><g transform="translate(-14,-14) scale(1,1)"><g><path fill="none" stroke="none"></path><text fill="#000000" stroke="none" font-family="Arial" font-size="13px" font-style="normal" font-weight="bold" text-decoration="none" x="757" y="426.5">FilteringStrategy</text></g></g><g transform="translate(-14,-14) scale(1,1)"><path fill="#C0C0C0" stroke="none" d="M 800 330.5 C 800 324.1487248 805.1487248 319 811.5 319 C 817.8512752 319 823 324.1487248 823 330.5 C 823 336.8512752 817.8512752 342 811.5 342 C 805.1487248 342 800 336.8512752 800 330.5 Z" opacity="0.2"></path></g><g transform="translate(-14,-14) scale(1,1)"><path fill="#ffffff" stroke="none" d="M 793 323.5 C 793 317.1487248 798.1487248 312 804.5 312 C 810.8512752 312 816 317.1487248 816 323.5 C 816 329.8512752 810.8512752 335 804.5 335 C 798.1487248 335 793 329.8512752 793 323.5 Z"></path></g><g transform="translate(-14,-14) scale(1,1)"><path fill="none" stroke="#000000" d="M 793 323.5 C 793 317.1487248 798.1487248 312 804.5 312 C 810.8512752 312 816 317.1487248 816 323.5 C 816 329.8512752 810.8512752 335 804.5 335 C 798.1487248 335 793 329.8512752 793 323.5 Z" stroke-miterlimit="10"></path></g><g transform="translate(-14,-14) scale(1,1)"><g><path fill="none" stroke="none"></path><text fill="#000000" stroke="none" font-family="Arial" font-size="13px" font-style="normal" font-weight="bold" text-decoration="none" x="759.5" y="354.5">UpdateStrategy</text></g></g><g transform="translate(-14,-14) scale(1,1)"><path fill="#C0C0C0" stroke="none" d="M 800 474.5 C 800 468.1487248 805.1487248 463 811.5 463 C 817.8512752 463 823 468.1487248 823 474.5 C 823 480.8512752 817.8512752 486 811.5 486 C 805.1487248 486 800 480.8512752 800 474.5 Z" opacity="0.2"></path></g><g transform="translate(-14,-14) scale(1,1)"><path fill="#ffffff" stroke="none" d="M 793 467.5 C 793 461.1487248 798.1487248 456 804.5 456 C 810.8512752 456 816 461.1487248 816 467.5 C 816 473.8512752 810.8512752 479 804.5 479 C 798.1487248 479 793 473.8512752 793 467.5 Z"></path></g><g transform="translate(-14,-14) scale(1,1)"><path fill="none" stroke="#000000" d="M 793 467.5 C 793 461.1487248 798.1487248 456 804.5 456 C 810.8512752 456 816 461.1487248 816 467.5 C 816 473.8512752 810.8512752 479 804.5 479 C 798.1487248 479 793 473.8512752 793 467.5 Z" stroke-miterlimit="10"></path></g><g transform="translate(-14,-14) scale(1,1)"><g><path fill="none" stroke="none"></path><text fill="#000000" stroke="none" font-family="Arial" font-size="13px" font-style="normal" font-weight="bold" text-decoration="none" x="746" y="498.5">ResamplingStrategy</text></g></g><g transform="translate(-14,-14) scale(1,1)"><path fill="none" stroke="#000000" d="M 750 358 L 660 395" stroke-miterlimit="10"></path></g><g transform="translate(-14,-14) scale(1,1)"><path fill="#000000" stroke="none" d="M 667.7987672512248 387.2424727289411 L 660 395 L 670.999961346842 395.02916106963136 L 680.3475972099611 386.63487670257155"></path></g><g transform="translate(-14,-14) scale(1,1)"><path fill="none" stroke="#000000" d="M 667.7987672512248 387.2424727289411 L 660 395 L 670.999961346842 395.02916106963136 L 680.3475972099611 386.63487670257155 L 667.7987672512248 387.2424727289411" stroke-miterlimit="10"></path></g><g transform="translate(-14,-14) scale(1,1)"><path fill="none" stroke="#000000" d="M 746 410 L 660 413" stroke-miterlimit="10"></path></g><g transform="translate(-14,-14) scale(1,1)"><path fill="#000000" stroke="none" d="M 670.0097427688365 408.4387447230259 L 660 413 L 670.3032515268486 416.852662452706 L 681.9866265902335 412.23302465382903"></path></g><g transform="translate(-14,-14) scale(1,1)"><path fill="none" stroke="#000000" d="M 670.0097427688365 408.4387447230259 L 660 413 L 670.3032515268486 416.852662452706 L 681.9866265902335 412.23302465382903 L 670.0097427688365 408.4387447230259" stroke-miterlimit="10"></path></g><g transform="translate(-14,-14) scale(1,1)"><path fill="none" stroke="#000000" d="M 735 456 L 660 430" stroke-miterlimit="10"></path></g><g transform="translate(-14,-14) scale(1,1)"><path fill="#000000" stroke="none" d="M 670.9808620604788 429.35141044663254 L 660 430 L 668.2232640976315 437.30601995484574 L 680.7863963669697 437.2059507405495"></path></g><g transform="translate(-14,-14) scale(1,1)"><path fill="none" stroke="#000000" d="M 670.9808620604788 429.35141044663254 L 660 430 L 668.2232640976315 437.30601995484574 L 680.7863963669697 437.2059507405495 L 670.9808620604788 429.35141044663254" stroke-miterlimit="10"></path></g><g transform="translate(-14,-14) scale(1,1)"><rect fill="#C0C0C0" stroke="none" x="559" y="575" width="132" height="44" opacity="0.2"></rect></g><g transform="translate(-14,-14) scale(1,1)"><rect fill="#ffffff" stroke="none" x="552" y="568" width="132" height="44"></rect></g><g transform="translate(-14,-14) scale(1,1)"><path fill="none" stroke="#000000" d="M 552 568 L 684 568 L 684 612 L 552 612 L 552 568 Z Z" stroke-miterlimit="10"></path></g><g transform="translate(-14,-14) scale(1,1)"><path fill="none" stroke="#000000" d="M 552 593 L 684 593" stroke-miterlimit="10"></path></g><g transform="translate(-14,-14) scale(1,1)"><path fill="none" stroke="#000000" d="M 552 603 L 684 603" stroke-miterlimit="10"></path></g><g transform="translate(-14,-14) scale(1,1)"><g><path fill="none" stroke="none"></path><text fill="#000000" stroke="none" font-family="Arial" font-size="13px" font-style="normal" font-weight="bold" text-decoration="none" x="564" y="587.5">IndoorParticleFilter</text></g></g><g transform="translate(-14,-14) scale(1,1)"><path fill="none" stroke="#000000" d="M 617 567 L 614 437" stroke-miterlimit="10"></path></g><g transform="translate(-14,-14) scale(1,1)"><path fill="#FFFFFF" stroke="none" d="M 622.8857163396973 457.12570607781095 L 614 437 L 606.0521270357126 457.5141735232875"></path></g><g transform="translate(-14,-14) scale(1,1)"><path fill="none" stroke="#000000" d="M 622.8857163396973 457.12570607781095 L 614 437 L 606.0521270357126 457.5141735232875 L 622.8857163396973 457.12570607781095" stroke-miterlimit="10"></path></g><g transform="translate(-14,-14) scale(1,1)"><path fill="#C0C0C0" stroke="none" d="M 450 602.5 C 450 596.1487248 455.1487248 591 461.5 591 C 467.8512752 591 473 596.1487248 473 602.5 C 473 608.8512752 467.8512752 614 461.5 614 C 455.1487248 614 450 608.8512752 450 602.5 Z" opacity="0.2"></path></g><g transform="translate(-14,-14) scale(1,1)"><path fill="#ffffff" stroke="none" d="M 443 595.5 C 443 589.1487248 448.1487248 584 454.5 584 C 460.8512752 584 466 589.1487248 466 595.5 C 466 601.8512752 460.8512752 607 454.5 607 C 448.1487248 607 443 601.8512752 443 595.5 Z"></path></g><g transform="translate(-14,-14) scale(1,1)"><path fill="none" stroke="#000000" d="M 443 595.5 C 443 589.1487248 448.1487248 584 454.5 584 C 460.8512752 584 466 589.1487248 466 595.5 C 466 601.8512752 460.8512752 607 454.5 607 C 448.1487248 607 443 601.8512752 443 595.5 Z" stroke-miterlimit="10"></path></g><g transform="translate(-14,-14) scale(1,1)"><g><path fill="none" stroke="none"></path><text fill="#000000" stroke="none" font-family="Arial" font-size="13px" font-style="normal" font-weight="bold" text-decoration="none" x="408.5" y="626.5">PositionFilter2D</text></g></g><g transform="translate(-14,-14) scale(1,1)"><path fill="none" stroke="#000000" d="M 551 597 L 466 596.5" stroke-miterlimit="10"></path></g><g transform="translate(-14,-14) scale(1,1)"><path fill="#C0C0C0" stroke="none" d="M 803.5 586.5 C 803.5 580.1487248 808.6487248 575 815 575 C 821.3512752 575 826.5 580.1487248 826.5 586.5 C 826.5 592.8512752 821.3512752 598 815 598 C 808.6487248 598 803.5 592.8512752 803.5 586.5 Z" opacity="0.2"></path></g><g transform="translate(-14,-14) scale(1,1)"><path fill="#ffffff" stroke="none" d="M 796.5 579.5 C 796.5 573.1487248 801.6487248 568 808 568 C 814.3512752 568 819.5 573.1487248 819.5 579.5 C 819.5 585.8512752 814.3512752 591 808 591 C 801.6487248 591 796.5 585.8512752 796.5 579.5 Z"></path></g><g transform="translate(-14,-14) scale(1,1)"><path fill="none" stroke="#000000" d="M 796.5 579.5 C 796.5 573.1487248 801.6487248 568 808 568 C 814.3512752 568 819.5 573.1487248 819.5 579.5 C 819.5 585.8512752 814.3512752 591 808 591 C 801.6487248 591 796.5 585.8512752 796.5 579.5 Z" stroke-miterlimit="10"></path></g><g transform="translate(-14,-14) scale(1,1)"><g><path fill="none" stroke="none"></path><text fill="#000000" stroke="none" font-family="Arial" font-size="13px" font-style="normal" font-weight="bold" text-decoration="none" x="738.5" y="610.5">PositionPickingStrategy</text></g></g><g transform="translate(-14,-14) scale(1,1)"><path fill="none" stroke="#000000" d="M 727 591 L 685 591" stroke-miterlimit="10"></path></g><g transform="translate(-14,-14) scale(1,1)"><path fill="#000000" stroke="none" d="M 695.1626748576241 586.790482243984 L 685 591 L 695.1626748576241 595.209517756016 L 707 591"></path></g><g transform="translate(-14,-14) scale(1,1)"><path fill="none" stroke="#000000" d="M 695.1626748576241 586.790482243984 L 685 591 L 695.1626748576241 595.209517756016 L 707 591 L 695.1626748576241 586.790482243984" stroke-miterlimit="10"></path></g><g transform="translate(-14,-14) scale(1,1)"><path fill="#C0C0C0" stroke="none" d="M 1080 410.5 C 1080 404.1487248 1085.1487248 399 1091.5 399 C 1097.8512752 399 1103 404.1487248 1103 410.5 C 1103 416.8512752 1097.8512752 422 1091.5 422 C 1085.1487248 422 1080 416.8512752 1080 410.5 Z" opacity="0.2"></path></g><g transform="translate(-14,-14) scale(1,1)"><path fill="#ffffff" stroke="none" d="M 1073 403.5 C 1073 397.1487248 1078.1487248 392 1084.5 392 C 1090.8512752 392 1096 397.1487248 1096 403.5 C 1096 409.8512752 1090.8512752 415 1084.5 415 C 1078.1487248 415 1073 409.8512752 1073 403.5 Z"></path></g><g transform="translate(-14,-14) scale(1,1)"><path fill="none" stroke="#000000" d="M 1073 403.5 C 1073 397.1487248 1078.1487248 392 1084.5 392 C 1090.8512752 392 1096 397.1487248 1096 403.5 C 1096 409.8512752 1090.8512752 415 1084.5 415 C 1078.1487248 415 1073 409.8512752 1073 403.5 Z" stroke-miterlimit="10"></path></g><g transform="translate(-14,-14) scale(1,1)"><path fill="none" stroke="#000000" d="M 1008 440 L 1161 440" stroke-miterlimit="10"></path></g><g transform="translate(-14,-14) scale(1,1)"><g><path fill="none" stroke="none"></path><text fill="#000000" stroke="none" font-family="Arial" font-size="13px" font-style="normal" font-weight="bold" text-decoration="none" x="1062.5" y="434.5">Particle</text></g></g><g transform="translate(-14,-14) scale(1,1)"><g><path fill="none" stroke="none"></path><text fill="#000000" stroke="none" font-family="Arial" font-size="13px" font-style="normal" font-weight="normal" text-decoration="none" x="1013" y="457.5">+getWeight(): float</text></g></g><g transform="translate(-14,-14) scale(1,1)"><g><path fill="none" stroke="none"></path><text fill="#000000" stroke="none" font-family="Arial" font-size="13px" font-style="normal" font-weight="normal" text-decoration="none" x="1013" y="472.5">+setWeight(weight: float)</text></g></g><g transform="translate(-14,-14) scale(1,1)"><path fill="none" stroke="#000000" d="M 859 355 L 1007 408" stroke-miterlimit="10"></path></g><g transform="translate(-14,-14) scale(1,1)"><g><path fill="none" stroke="none"></path><text fill="#000000" stroke="none" font-family="Arial" font-size="13px" font-style="normal" font-weight="normal" text-decoration="none" x="911" y="373">+updates</text></g></g><g transform="translate(-14,-14) scale(1,1)"><path fill="none" stroke="#000000" d="M 863 414 L 1007 428" stroke-miterlimit="10"></path></g><g transform="translate(-14,-14) scale(1,1)"><g><path fill="none" stroke="none"></path><text fill="#000000" stroke="none" font-family="Arial" font-size="13px" font-style="normal" font-weight="normal" text-decoration="none" x="917" y="413">+filters</text></g></g><g transform="translate(-14,-14) scale(1,1)"><path fill="none" stroke="#000000" d="M 874 469 L 1007 447" stroke-miterlimit="10"></path></g><g transform="translate(-14,-14) scale(1,1)"><g><path fill="none" stroke="none"></path><text fill="#000000" stroke="none" font-family="Arial" font-size="13px" font-style="normal" font-weight="normal" text-decoration="none" x="903" y="450">+resamples</text></g></g><g transform="translate(-14,-14) scale(1,1)"><rect fill="#C0C0C0" stroke="none" x="1039" y="559" width="109" height="102" opacity="0.2"></rect></g><g transform="translate(-14,-14) scale(1,1)"><rect fill="#ffffff" stroke="none" x="1032" y="552" width="109" height="102"></rect></g><g transform="translate(-14,-14) scale(1,1)"><path fill="none" stroke="#000000" d="M 1032 552 L 1141 552 L 1141 654 L 1032 654 L 1032 552 Z Z" stroke-miterlimit="10"></path></g><g transform="translate(-14,-14) scale(1,1)"><path fill="none" stroke="#000000" d="M 1032 577 L 1141 577" stroke-miterlimit="10"></path></g><g transform="translate(-14,-14) scale(1,1)"><path fill="none" stroke="#000000" d="M 1032 587 L 1141 587" stroke-miterlimit="10"></path></g><g transform="translate(-14,-14) scale(1,1)"><g><path fill="none" stroke="none"></path><text fill="#000000" stroke="none" font-family="Arial" font-size="13px" font-style="normal" font-weight="bold" text-decoration="none" x="1041" y="571.5">PositionParticle</text></g></g><g transform="translate(-14,-14) scale(1,1)"><g><path fill="none" stroke="none"></path><text fill="#000000" stroke="none" font-family="Arial" font-size="13px" font-style="normal" font-weight="normal" text-decoration="none" x="1037" y="604.5">+getX(): float</text></g></g><g transform="translate(-14,-14) scale(1,1)"><g><path fill="none" stroke="none"></path><text fill="#000000" stroke="none" font-family="Arial" font-size="13px" font-style="normal" font-weight="normal" text-decoration="none" x="1037" y="619.5">+setX(x: float)</text></g></g><g transform="translate(-14,-14) scale(1,1)"><g><path fill="none" stroke="none"></path><text fill="#000000" stroke="none" font-family="Arial" font-size="13px" font-style="normal" font-weight="normal" text-decoration="none" x="1037" y="634.5">+getY(): float</text></g></g><g transform="translate(-14,-14) scale(1,1)"><g><path fill="none" stroke="none"></path><text fill="#000000" stroke="none" font-family="Arial" font-size="13px" font-style="normal" font-weight="normal" text-decoration="none" x="1037" y="649.5">+setY(y: float)</text></g></g><g transform="translate(-14,-14) scale(1,1)"><path fill="none" stroke="#000000" d="M 1085 551 L 1084.157894736842 415" stroke-miterlimit="10"></path></g></g></svg>