<svg version="1.1" xmlns="http://www.w3.org/2000/svg" xmlns:xlink="http://www.w3.org/1999/xlink" width="948" height="516"><defs></defs><g><g transform="translate(-6,-14) scale(1,1)"><rect fill="#C0C0C0" stroke="none" x="23" y="31" width="371.2" height="15" opacity="0.2"></rect></g><g transform="translate(-6,-14) scale(1,1)"><rect fill="#C0C0C0" stroke="none" x="23" y="45" width="928" height="482" opacity="0.2"></rect></g><g transform="translate(-6,-14) scale(1,1)"><rect fill="#ffffff" stroke="none" x="16" y="39" width="928" height="481"></rect></g><g transform="translate(-6,-14) scale(1,1)"><path fill="none" stroke="#000000" d="M 16 39 L 944 39 L 944 520 L 16 520 L 16 39 Z Z" stroke-miterlimit="10"></path></g><g transform="translate(-6,-14) scale(1,1)"><rect fill="#ffffff" stroke="none" x="16" y="24" width="371.2" height="15"></rect></g><g transform="translate(-6,-14) scale(1,1)"><path fill="none" stroke="#000000" d="M 16 24 L 387.2 24 L 387.2 39 L 16 39 L 16 24 Z Z" stroke-miterlimit="10"></path></g><g transform="translate(-6,-14) scale(1,1)"><rect fill="#ffffff" stroke="none" x="16" y="38" width="928" height="482"></rect></g><g transform="translate(-6,-14) scale(1,1)"><path fill="none" stroke="#000000" d="M 16 38 L 944 38 L 944 520 L 16 520 L 16 38 Z Z" stroke-miterlimit="10"></path></g><g transform="translate(-6,-14) scale(1,1)"><g><path fill="none" stroke="none"></path><text fill="#000000" stroke="none" font-family="Arial" font-size="13px" font-style="normal" font-weight="bold" text-decoration="none" x="388.5" y="58.5">it.cnr.isti.wnlab.indoornavigation</text></g></g><g transform="translate(-6,-14) scale(1,1)"><rect fill="#C0C0C0" stroke="none" x="47" y="87" width="352" height="15" opacity="0.2"></rect></g><g transform="translate(-6,-14) scale(1,1)"><rect fill="#C0C0C0" stroke="none" x="47" y="101" width="880" height="402" opacity="0.2"></rect></g><g transform="translate(-6,-14) scale(1,1)"><rect fill="#ffffff" stroke="none" x="40" y="95" width="880" height="401"></rect></g><g transform="translate(-6,-14) scale(1,1)"><path fill="none" stroke="#000000" d="M 40 95 L 920 95 L 920 496 L 40 496 L 40 95 Z Z" stroke-miterlimit="10"></path></g><g transform="translate(-6,-14) scale(1,1)"><rect fill="#ffffff" stroke="none" x="40" y="80" width="352" height="15"></rect></g><g transform="translate(-6,-14) scale(1,1)"><path fill="none" stroke="#000000" d="M 40 80 L 392 80 L 392 95 L 40 95 L 40 80 Z Z" stroke-miterlimit="10"></path></g><g transform="translate(-6,-14) scale(1,1)"><rect fill="#ffffff" stroke="none" x="40" y="94" width="880" height="402"></rect></g><g transform="translate(-6,-14) scale(1,1)"><path fill="none" stroke="#000000" d="M 40 94 L 920 94 L 920 496 L 40 496 L 40 94 Z Z" stroke-miterlimit="10"></path></g><g transform="translate(-6,-14) scale(1,1)"><g><path fill="none" stroke="none"></path><text fill="#000000" stroke="none" font-family="Arial" font-size="13px" font-style="normal" font-weight="bold" text-decoration="none" x="452" y="114.5">fingerprint</text></g></g><g transform="translate(-6,-14) scale(1,1)"><rect fill="#C0C0C0" stroke="none" x="455" y="199" width="106" height="57" opacity="0.2"></rect></g><g transform="translate(-6,-14) scale(1,1)"><rect fill="#ffffff" stroke="none" x="448" y="192" width="106" height="57"></rect></g><g transform="translate(-6,-14) scale(1,1)"><path fill="none" stroke="#000000" d="M 448 192 L 554 192 L 554 249 L 448 249 L 448 192 Z Z" stroke-miterlimit="10"></path></g><g transform="translate(-6,-14) scale(1,1)"><path fill="none" stroke="#000000" d="M 448 230 L 554 230" stroke-miterlimit="10"></path></g><g transform="translate(-6,-14) scale(1,1)"><path fill="none" stroke="#000000" d="M 448 240 L 554 240" stroke-miterlimit="10"></path></g><g transform="translate(-6,-14) scale(1,1)"><g><path fill="none" stroke="none"></path><text fill="#000000" stroke="none" font-family="Arial" font-size="13px" font-style="normal" font-weight="normal" text-decoration="none" x="470.5" y="209.5">«abstract»</text></g></g><g transform="translate(-6,-14) scale(1,1)"><g><path fill="none" stroke="none"></path><text fill="#000000" stroke="none" font-family="Arial" font-size="13px" font-style="normal" font-weight="bold" text-decoration="none" x="458" y="224.5">FingerprintMap</text></g></g><g transform="translate(-6,-14) scale(1,1)"><rect fill="#C0C0C0" stroke="none" x="255" y="199" width="152" height="57" opacity="0.2"></rect></g><g transform="translate(-6,-14) scale(1,1)"><rect fill="#ffffff" stroke="none" x="248" y="192" width="152" height="57"></rect></g><g transform="translate(-6,-14) scale(1,1)"><path fill="none" stroke="#000000" d="M 248 192 L 400 192 L 400 249 L 248 249 L 248 192 Z Z" stroke-miterlimit="10"></path></g><g transform="translate(-6,-14) scale(1,1)"><path fill="none" stroke="#000000" d="M 248 230 L 400 230" stroke-miterlimit="10"></path></g><g transform="translate(-6,-14) scale(1,1)"><path fill="none" stroke="#000000" d="M 248 240 L 400 240" stroke-miterlimit="10"></path></g><g transform="translate(-6,-14) scale(1,1)"><g><path fill="none" stroke="none"></path><text fill="#000000" stroke="none" font-family="Arial" font-size="13px" font-style="normal" font-weight="normal" text-decoration="none" x="293.5" y="209.5">«abstract»</text></g></g><g transform="translate(-6,-14) scale(1,1)"><g><path fill="none" stroke="none"></path><text fill="#000000" stroke="none" font-family="Arial" font-size="13px" font-style="normal" font-weight="bold" text-decoration="none" x="261" y="224.5">FingerprintMapBuilder</text></g></g><g transform="translate(-6,-14) scale(1,1)"><rect fill="#C0C0C0" stroke="none" x="751" y="205" width="88" height="44" opacity="0.2"></rect></g><g transform="translate(-6,-14) scale(1,1)"><rect fill="#ffffff" stroke="none" x="744" y="198" width="88" height="44"></rect></g><g transform="translate(-6,-14) scale(1,1)"><path fill="none" stroke="#000000" d="M 744 198 L 832 198 L 832 242 L 744 242 L 744 198 Z Z" stroke-miterlimit="10"></path></g><g transform="translate(-6,-14) scale(1,1)"><path fill="none" stroke="#000000" d="M 744 223 L 832 223" stroke-miterlimit="10"></path></g><g transform="translate(-6,-14) scale(1,1)"><path fill="none" stroke="#000000" d="M 744 233 L 832 233" stroke-miterlimit="10"></path></g><g transform="translate(-6,-14) scale(1,1)"><g><path fill="none" stroke="none"></path><text fill="#000000" stroke="none" font-family="Arial" font-size="13px" font-style="normal" font-weight="bold" text-decoration="none" x="750" y="217.5">DistacesMap</text></g></g><g transform="translate(-6,-14) scale(1,1)"><path fill="none" stroke="#000000" d="M 743 220 L 555 220" stroke-miterlimit="10"></path></g><g transform="translate(-6,-14) scale(1,1)"><path fill="none" stroke="#000000" d="M 565.1626748576241 215.790482243984 L 555 220 L 565.1626748576241 224.209517756016" stroke-miterlimit="10"></path></g><g transform="translate(-6,-14) scale(1,1)"><g><path fill="none" stroke="none"></path><text fill="#000000" stroke="none" font-family="Arial" font-size="13px" font-style="normal" font-weight="normal" text-decoration="none" x="630" y="242">+uses</text></g></g><g transform="translate(-6,-14) scale(1,1)"><rect fill="#C0C0C0" stroke="none" x="551" y="358" width="131" height="44" opacity="0.2"></rect></g><g transform="translate(-6,-14) scale(1,1)"><rect fill="#ffffff" stroke="none" x="544" y="351" width="131" height="44"></rect></g><g transform="translate(-6,-14) scale(1,1)"><path fill="none" stroke="#000000" d="M 544 351 L 675 351 L 675 395 L 544 395 L 544 351 Z Z" stroke-miterlimit="10"></path></g><g transform="translate(-6,-14) scale(1,1)"><path fill="none" stroke="#000000" d="M 544 376 L 675 376" stroke-miterlimit="10"></path></g><g transform="translate(-6,-14) scale(1,1)"><path fill="none" stroke="#000000" d="M 544 386 L 675 386" stroke-miterlimit="10"></path></g><g transform="translate(-6,-14) scale(1,1)"><g><path fill="none" stroke="none"></path><text fill="#000000" stroke="none" font-family="Arial" font-size="13px" font-style="normal" font-weight="bold" text-decoration="none" x="555.5" y="370.5">WifiFingerprintMap</text></g></g><g transform="translate(-6,-14) scale(1,1)"><rect fill="#C0C0C0" stroke="none" x="743" y="434" width="164" height="44" opacity="0.2"></rect></g><g transform="translate(-6,-14) scale(1,1)"><rect fill="#ffffff" stroke="none" x="736" y="427" width="164" height="44"></rect></g><g transform="translate(-6,-14) scale(1,1)"><path fill="none" stroke="#000000" d="M 736 427 L 900 427 L 900 471 L 736 471 L 736 427 Z Z" stroke-miterlimit="10"></path></g><g transform="translate(-6,-14) scale(1,1)"><path fill="none" stroke="#000000" d="M 736 452 L 900 452" stroke-miterlimit="10"></path></g><g transform="translate(-6,-14) scale(1,1)"><path fill="none" stroke="#000000" d="M 736 462 L 900 462" stroke-miterlimit="10"></path></g><g transform="translate(-6,-14) scale(1,1)"><g><path fill="none" stroke="none"></path><text fill="#000000" stroke="none" font-family="Arial" font-size="13px" font-style="normal" font-weight="bold" text-decoration="none" x="748.5" y="446.5">MagneticFingerprintMap</text></g></g><g transform="translate(-6,-14) scale(1,1)"><path fill="none" stroke="#000000" d="M 786 426 L 543 250" stroke-miterlimit="10"></path></g><g transform="translate(-6,-14) scale(1,1)"><path fill="#FFFFFF" stroke="none" d="M 564.3997287915619 255.10407755109554 L 543 250 L 554.5227654959847 268.7410211921481"></path></g><g transform="translate(-6,-14) scale(1,1)"><path fill="none" stroke="#000000" d="M 564.3997287915619 255.10407755109554 L 543 250 L 554.5227654959847 268.7410211921481 L 564.3997287915619 255.10407755109554" stroke-miterlimit="10"></path></g><g transform="translate(-6,-14) scale(1,1)"><path fill="none" stroke="#000000" d="M 593 350 L 522 250" stroke-miterlimit="10"></path></g><g transform="translate(-6,-14) scale(1,1)"><path fill="#FFFFFF" stroke="none" d="M 540.6315287665565 261.6989801188385 L 522 250 L 526.9020521597071 271.44690850970164"></path></g><g transform="translate(-6,-14) scale(1,1)"><path fill="none" stroke="#000000" d="M 540.6315287665565 261.6989801188385 L 522 250 L 526.9020521597071 271.44690850970164 L 540.6315287665565 261.6989801188385" stroke-miterlimit="10"></path></g><g transform="translate(-6,-14) scale(1,1)"><rect fill="#C0C0C0" stroke="none" x="279" y="358" width="181" height="44" opacity="0.2"></rect></g><g transform="translate(-6,-14) scale(1,1)"><rect fill="#ffffff" stroke="none" x="272" y="351" width="181" height="44"></rect></g><g transform="translate(-6,-14) scale(1,1)"><path fill="none" stroke="#000000" d="M 272 351 L 453 351 L 453 395 L 272 395 L 272 351 Z Z" stroke-miterlimit="10"></path></g><g transform="translate(-6,-14) scale(1,1)"><path fill="none" stroke="#000000" d="M 272 376 L 453 376" stroke-miterlimit="10"></path></g><g transform="translate(-6,-14) scale(1,1)"><path fill="none" stroke="#000000" d="M 272 386 L 453 386" stroke-miterlimit="10"></path></g><g transform="translate(-6,-14) scale(1,1)"><g><path fill="none" stroke="none"></path><text fill="#000000" stroke="none" font-family="Arial" font-size="13px" font-style="normal" font-weight="bold" text-decoration="none" x="286.5" y="370.5">WifiFingerprintMap.Builder</text></g></g><g transform="translate(-6,-14) scale(1,1)"><path fill="none" stroke="#000000" d="M 287 449 L 735 449" stroke-miterlimit="10"></path></g><g transform="translate(-6,-14) scale(1,1)"><path fill="none" stroke="#000000" d="M 724.8373251423759 453.209517756016 L 735 449 L 724.8373251423758 444.790482243984" stroke-miterlimit="10"></path></g><g transform="translate(-6,-14) scale(1,1)"><g><path fill="none" stroke="none"></path><text fill="#000000" stroke="none" font-family="Arial" font-size="13px" font-style="normal" font-weight="normal" text-decoration="none" x="486" y="441">+creates</text></g></g><g transform="translate(-6,-14) scale(1,1)"><rect fill="#C0C0C0" stroke="none" x="79" y="434" width="214" height="44" opacity="0.2"></rect></g><g transform="translate(-6,-14) scale(1,1)"><rect fill="#ffffff" stroke="none" x="72" y="427" width="214" height="44"></rect></g><g transform="translate(-6,-14) scale(1,1)"><path fill="none" stroke="#000000" d="M 72 427 L 286 427 L 286 471 L 72 471 L 72 427 Z Z" stroke-miterlimit="10"></path></g><g transform="translate(-6,-14) scale(1,1)"><path fill="none" stroke="#000000" d="M 72 452 L 286 452" stroke-miterlimit="10"></path></g><g transform="translate(-6,-14) scale(1,1)"><path fill="none" stroke="#000000" d="M 72 462 L 286 462" stroke-miterlimit="10"></path></g><g transform="translate(-6,-14) scale(1,1)"><g><path fill="none" stroke="none"></path><text fill="#000000" stroke="none" font-family="Arial" font-size="13px" font-style="normal" font-weight="bold" text-decoration="none" x="87.5" y="446.5">MagneticFingerprintMap.Builder</text></g></g><g transform="translate(-6,-14) scale(1,1)"><path fill="none" stroke="#000000" d="M 194 426 L 305 250" stroke-miterlimit="10"></path></g><g transform="translate(-6,-14) scale(1,1)"><path fill="#FFFFFF" stroke="none" d="M 301.2785172559022 271.6829556607346 L 305 250 L 287.0363493317071 262.7006792994524"></path></g><g transform="translate(-6,-14) scale(1,1)"><path fill="none" stroke="#000000" d="M 301.2785172559022 271.6829556607346 L 305 250 L 287.0363493317071 262.7006792994524 L 301.2785172559022 271.6829556607346" stroke-miterlimit="10"></path></g><g transform="translate(-6,-14) scale(1,1)"><path fill="none" stroke="#000000" d="M 356 350 L 331 250" stroke-miterlimit="10"></path></g><g transform="translate(-6,-14) scale(1,1)"><path fill="#FFFFFF" stroke="none" d="M 344.09728555772483 267.67656954896546 L 331 250 L 327.76195723681474 271.760401629193"></path></g><g transform="translate(-6,-14) scale(1,1)"><path fill="none" stroke="#000000" d="M 344.09728555772483 267.67656954896546 L 331 250 L 327.76195723681474 271.760401629193 L 344.09728555772483 267.67656954896546" stroke-miterlimit="10"></path></g><g transform="translate(-6,-14) scale(1,1)"><path fill="none" stroke="#000000" d="M 454 373 L 543 373" stroke-miterlimit="10"></path></g><g transform="translate(-6,-14) scale(1,1)"><path fill="none" stroke="#000000" d="M 532.8373251423759 377.209517756016 L 543 373 L 532.8373251423758 368.790482243984" stroke-miterlimit="10"></path></g><g transform="translate(-6,-14) scale(1,1)"><g><path fill="none" stroke="none"></path><text fill="#000000" stroke="none" font-family="Arial" font-size="13px" font-style="normal" font-weight="normal" text-decoration="none" x="464" y="364">+creates</text></g></g></g></svg>