<svg version="1.1" xmlns="http://www.w3.org/2000/svg" xmlns:xlink="http://www.w3.org/1999/xlink" width="492" height="652"><defs></defs><g><g transform="translate(-14,2) scale(1,1)"><rect fill="#C0C0C0" stroke="none" x="31" y="15" width="188.8" height="15" opacity="0.2"></rect></g><g transform="translate(-14,2) scale(1,1)"><rect fill="#C0C0C0" stroke="none" x="31" y="29" width="472" height="618" opacity="0.2"></rect></g><g transform="translate(-14,2) scale(1,1)"><rect fill="#ffffff" stroke="none" x="24" y="23" width="472" height="617"></rect></g><g transform="translate(-14,2) scale(1,1)"><path fill="none" stroke="#000000" d="M 24 23 L 496 23 L 496 640 L 24 640 L 24 23 Z Z" stroke-miterlimit="10"></path></g><g transform="translate(-14,2) scale(1,1)"><rect fill="#ffffff" stroke="none" x="24" y="8" width="188.8" height="15"></rect></g><g transform="translate(-14,2) scale(1,1)"><path fill="none" stroke="#000000" d="M 24 8 L 212.8 8 L 212.8 23 L 24 23 L 24 8 Z Z" stroke-miterlimit="10"></path></g><g transform="translate(-14,2) scale(1,1)"><rect fill="#ffffff" stroke="none" x="24" y="22" width="472" height="618"></rect></g><g transform="translate(-14,2) scale(1,1)"><path fill="none" stroke="#000000" d="M 24 22 L 496 22 L 496 640 L 24 640 L 24 22 Z Z" stroke-miterlimit="10"></path></g><g transform="translate(-14,2) scale(1,1)"><g><path fill="none" stroke="none"></path><text fill="#000000" stroke="none" font-family="Arial" font-size="13px" font-style="normal" font-weight="bold" text-decoration="none" x="168.5" y="42.5">it.cnr.isti.wnlab.indoornavigation</text></g></g><g transform="translate(-14,2) scale(1,1)"><rect fill="#C0C0C0" stroke="none" x="47" y="79" width="172.4" height="15" opacity="0.2"></rect></g><g transform="translate(-14,2) scale(1,1)"><rect fill="#C0C0C0" stroke="none" x="47" y="93" width="431" height="530" opacity="0.2"></rect></g><g transform="translate(-14,2) scale(1,1)"><rect fill="#ffffff" stroke="none" x="40" y="87" width="431" height="529"></rect></g><g transform="translate(-14,2) scale(1,1)"><path fill="none" stroke="#000000" d="M 40 87 L 471 87 L 471 616 L 40 616 L 40 87 Z Z" stroke-miterlimit="10"></path></g><g transform="translate(-14,2) scale(1,1)"><rect fill="#ffffff" stroke="none" x="40" y="72" width="172.4" height="15"></rect></g><g transform="translate(-14,2) scale(1,1)"><path fill="none" stroke="#000000" d="M 40 72 L 212.4 72 L 212.4 87 L 40 87 L 40 72 Z Z" stroke-miterlimit="10"></path></g><g transform="translate(-14,2) scale(1,1)"><rect fill="#ffffff" stroke="none" x="40" y="86" width="431" height="530"></rect></g><g transform="translate(-14,2) scale(1,1)"><path fill="none" stroke="#000000" d="M 40 86 L 471 86 L 471 616 L 40 616 L 40 86 Z Z" stroke-miterlimit="10"></path></g><g transform="translate(-14,2) scale(1,1)"><g><path fill="none" stroke="none"></path><text fill="#000000" stroke="none" font-family="Arial" font-size="13px" font-style="normal" font-weight="bold" text-decoration="none" x="243" y="106.5">map</text></g></g><g transform="translate(-14,2) scale(1,1)"><path fill="#C0C0C0" stroke="none" d="M 250 162.5 C 250 156.1487248 255.1487248 151 261.5 151 C 267.8512752 151 273 156.1487248 273 162.5 C 273 168.8512752 267.8512752 174 261.5 174 C 255.1487248 174 250 168.8512752 250 162.5 Z" opacity="0.2"></path></g><g transform="translate(-14,2) scale(1,1)"><path fill="#ffffff" stroke="none" d="M 243 155.5 C 243 149.1487248 248.1487248 144 254.5 144 C 260.8512752 144 266 149.1487248 266 155.5 C 266 161.8512752 260.8512752 167 254.5 167 C 248.1487248 167 243 161.8512752 243 155.5 Z"></path></g><g transform="translate(-14,2) scale(1,1)"><path fill="none" stroke="#000000" d="M 243 155.5 C 243 149.1487248 248.1487248 144 254.5 144 C 260.8512752 144 266 149.1487248 266 155.5 C 266 161.8512752 260.8512752 167 254.5 167 C 248.1487248 167 243 161.8512752 243 155.5 Z" stroke-miterlimit="10"></path></g><g transform="translate(-14,2) scale(1,1)"><g><path fill="none" stroke="none"></path><text fill="#000000" stroke="none" font-family="Arial" font-size="13px" font-style="normal" font-weight="bold" text-decoration="none" x="224.5" y="186.5">IndoorMap</text></g></g><g transform="translate(-14,2) scale(1,1)"><path fill="#C0C0C0" stroke="none" d="M 249 280.5 C 249 274.1487248 254.1487248 269 260.5 269 C 266.8512752 269 272 274.1487248 272 280.5 C 272 286.8512752 266.8512752 292 260.5 292 C 254.1487248 292 249 286.8512752 249 280.5 Z" opacity="0.2"></path></g><g transform="translate(-14,2) scale(1,1)"><path fill="#ffffff" stroke="none" d="M 242 273.5 C 242 267.1487248 247.1487248 262 253.5 262 C 259.8512752 262 265 267.1487248 265 273.5 C 265 279.8512752 259.8512752 285 253.5 285 C 247.1487248 285 242 279.8512752 242 273.5 Z"></path></g><g transform="translate(-14,2) scale(1,1)"><path fill="none" stroke="#000000" d="M 242 273.5 C 242 267.1487248 247.1487248 262 253.5 262 C 259.8512752 262 265 267.1487248 265 273.5 C 265 279.8512752 259.8512752 285 253.5 285 C 247.1487248 285 242 279.8512752 242 273.5 Z" stroke-miterlimit="10"></path></g><g transform="translate(-14,2) scale(1,1)"><path fill="none" stroke="#000000" d="M 152 310 L 355 310" stroke-miterlimit="10"></path></g><g transform="translate(-14,2) scale(1,1)"><g><path fill="none" stroke="none"></path><text fill="#000000" stroke="none" font-family="Arial" font-size="13px" font-style="normal" font-weight="bold" text-decoration="none" x="233" y="304.5">XYMap</text></g></g><g transform="translate(-14,2) scale(1,1)"><g><path fill="none" stroke="none"></path><text fill="#000000" stroke="none" font-family="Arial" font-size="13px" font-style="normal" font-weight="normal" text-decoration="none" x="157" y="327.5">+isValid(x: float, y: float): boolean</text></g></g><g transform="translate(-14,2) scale(1,1)"><path fill="none" stroke="#000000" d="M 253 261 L 254 193" stroke-miterlimit="10"></path></g><g transform="translate(-14,2) scale(1,1)"><path fill="#FFFFFF" stroke="none" d="M 262.1192554106308 213.4469482216037 L 254 193 L 245.2830048169764 213.1993563011088"></path></g><g transform="translate(-14,2) scale(1,1)"><path fill="none" stroke="#000000" d="M 262.1192554106308 213.4469482216037 L 254 193 L 245.2830048169764 213.1993563011088 L 262.1192554106308 213.4469482216037" stroke-miterlimit="10"></path></g><g transform="translate(-14,2) scale(1,1)"><rect fill="#C0C0C0" stroke="none" x="159" y="410" width="73" height="57" opacity="0.2"></rect></g><g transform="translate(-14,2) scale(1,1)"><rect fill="#ffffff" stroke="none" x="152" y="403" width="73" height="57"></rect></g><g transform="translate(-14,2) scale(1,1)"><path fill="none" stroke="#000000" d="M 152 403 L 225 403 L 225 460 L 152 460 L 152 403 Z Z" stroke-miterlimit="10"></path></g><g transform="translate(-14,2) scale(1,1)"><path fill="none" stroke="#000000" d="M 152 441 L 225 441" stroke-miterlimit="10"></path></g><g transform="translate(-14,2) scale(1,1)"><path fill="none" stroke="#000000" d="M 152 451 L 225 451" stroke-miterlimit="10"></path></g><g transform="translate(-14,2) scale(1,1)"><g><path fill="none" stroke="none"></path><text fill="#000000" stroke="none" font-family="Arial" font-size="13px" font-style="normal" font-weight="normal" text-decoration="none" x="158" y="420.5">«abstract»</text></g></g><g transform="translate(-14,2) scale(1,1)"><g><path fill="none" stroke="none"></path><text fill="#000000" stroke="none" font-family="Arial" font-size="13px" font-style="normal" font-weight="bold" text-decoration="none" x="159" y="435.5">RoomMap</text></g></g><g transform="translate(-14,2) scale(1,1)"><path fill="none" stroke="#000000" d="M 202 402 L 249.45901639344262 285" stroke-miterlimit="10"></path></g><g transform="translate(-14,2) scale(1,1)"><rect fill="#C0C0C0" stroke="none" x="335" y="410" width="70" height="57" opacity="0.2"></rect></g><g transform="translate(-14,2) scale(1,1)"><rect fill="#ffffff" stroke="none" x="328" y="403" width="70" height="57"></rect></g><g transform="translate(-14,2) scale(1,1)"><path fill="none" stroke="#000000" d="M 328 403 L 398 403 L 398 460 L 328 460 L 328 403 Z Z" stroke-miterlimit="10"></path></g><g transform="translate(-14,2) scale(1,1)"><path fill="none" stroke="#000000" d="M 328 441 L 398 441" stroke-miterlimit="10"></path></g><g transform="translate(-14,2) scale(1,1)"><path fill="none" stroke="#000000" d="M 328 451 L 398 451" stroke-miterlimit="10"></path></g><g transform="translate(-14,2) scale(1,1)"><g><path fill="none" stroke="none"></path><text fill="#000000" stroke="none" font-family="Arial" font-size="13px" font-style="normal" font-weight="normal" text-decoration="none" x="332.5" y="420.5">«abstract»</text></g></g><g transform="translate(-14,2) scale(1,1)"><g><path fill="none" stroke="none"></path><text fill="#000000" stroke="none" font-family="Arial" font-size="13px" font-style="normal" font-weight="bold" text-decoration="none" x="336" y="435.5">FloorMap</text></g></g><g transform="translate(-14,2) scale(1,1)"><path fill="none" stroke="#000000" d="M 339 402 L 258.9016393442623 285" stroke-miterlimit="10"></path></g><g transform="translate(-14,2) scale(1,1)"><rect fill="#C0C0C0" stroke="none" x="111" y="524" width="137" height="57" opacity="0.2"></rect></g><g transform="translate(-14,2) scale(1,1)"><rect fill="#ffffff" stroke="none" x="104" y="517" width="137" height="57"></rect></g><g transform="translate(-14,2) scale(1,1)"><path fill="none" stroke="#000000" d="M 104 517 L 241 517 L 241 574 L 104 574 L 104 517 Z Z" stroke-miterlimit="10"></path></g><g transform="translate(-14,2) scale(1,1)"><path fill="none" stroke="#000000" d="M 104 555 L 241 555" stroke-miterlimit="10"></path></g><g transform="translate(-14,2) scale(1,1)"><path fill="none" stroke="#000000" d="M 104 565 L 241 565" stroke-miterlimit="10"></path></g><g transform="translate(-14,2) scale(1,1)"><g><path fill="none" stroke="none"></path><text fill="#000000" stroke="none" font-family="Arial" font-size="13px" font-style="normal" font-weight="normal" text-decoration="none" x="142" y="534.5">«abstract»</text></g></g><g transform="translate(-14,2) scale(1,1)"><g><path fill="none" stroke="none"></path><text fill="#000000" stroke="none" font-family="Arial" font-size="13px" font-style="normal" font-weight="bold" text-decoration="none" x="114" y="549.5">RectangleRoomMap</text></g></g><g transform="translate(-14,2) scale(1,1)"><path fill="none" stroke="#000000" d="M 176 516 L 184 461" stroke-miterlimit="10"></path></g><g transform="translate(-14,2) scale(1,1)"><path fill="#FFFFFF" stroke="none" d="M 189.40573567246338 482.3255251245885 L 184 461 L 172.74300892334023 479.90185577926155"></path></g><g transform="translate(-14,2) scale(1,1)"><path fill="none" stroke="#000000" d="M 189.40573567246338 482.3255251245885 L 184 461 L 172.74300892334023 479.90185577926155 L 189.40573567246338 482.3255251245885" stroke-miterlimit="10"></path></g><g transform="translate(-14,2) scale(1,1)"><path fill="none" stroke="#000000" d="M 226 431 L 327 431" stroke-miterlimit="10"></path></g><g transform="translate(-14,2) scale(1,1)"><path fill="#000000" stroke="none" d="M 316.83732514237585 435.209517756016 L 327 431 L 316.83732514237585 426.790482243984 L 305 431"></path></g><g transform="translate(-14,2) scale(1,1)"><path fill="none" stroke="#000000" d="M 316.83732514237585 435.209517756016 L 327 431 L 316.83732514237585 426.790482243984 L 305 431 L 316.83732514237585 435.209517756016" stroke-miterlimit="10"></path></g></g></svg>