<svg version="1.1" xmlns="http://www.w3.org/2000/svg" xmlns:xlink="http://www.w3.org/1999/xlink" width="492" height="396"><defs></defs><g><g transform="translate(-6,-14) scale(1,1)"><rect fill="#C0C0C0" stroke="none" x="23" y="31" width="188.8" height="15" opacity="0.2"></rect></g><g transform="translate(-6,-14) scale(1,1)"><rect fill="#C0C0C0" stroke="none" x="23" y="45" width="472" height="362" opacity="0.2"></rect></g><g transform="translate(-6,-14) scale(1,1)"><rect fill="#ffffff" stroke="none" x="16" y="39" width="472" height="361"></rect></g><g transform="translate(-6,-14) scale(1,1)"><path fill="none" stroke="#000000" d="M 16 39 L 488 39 L 488 400 L 16 400 L 16 39 Z Z" stroke-miterlimit="10"></path></g><g transform="translate(-6,-14) scale(1,1)"><rect fill="#ffffff" stroke="none" x="16" y="24" width="188.8" height="15"></rect></g><g transform="translate(-6,-14) scale(1,1)"><path fill="none" stroke="#000000" d="M 16 24 L 204.8 24 L 204.8 39 L 16 39 L 16 24 Z Z" stroke-miterlimit="10"></path></g><g transform="translate(-6,-14) scale(1,1)"><rect fill="#ffffff" stroke="none" x="16" y="38" width="472" height="362"></rect></g><g transform="translate(-6,-14) scale(1,1)"><path fill="none" stroke="#000000" d="M 16 38 L 488 38 L 488 400 L 16 400 L 16 38 Z Z" stroke-miterlimit="10"></path></g><g transform="translate(-6,-14) scale(1,1)"><g><path fill="none" stroke="none"></path><text fill="#000000" stroke="none" font-family="Arial" font-size="13px" font-style="normal" font-weight="bold" text-decoration="none" x="160.5" y="58.5">it.cnr.isti.wnlab.indoornavigation</text></g></g><g transform="translate(-6,-14) scale(1,1)"><rect fill="#C0C0C0" stroke="none" x="63" y="279" width="160" height="15" opacity="0.2"></rect></g><g transform="translate(-6,-14) scale(1,1)"><rect fill="#C0C0C0" stroke="none" x="63" y="293" width="400" height="90" opacity="0.2"></rect></g><g transform="translate(-6,-14) scale(1,1)"><rect fill="#ffffff" stroke="none" x="56" y="287" width="400" height="89"></rect></g><g transform="translate(-6,-14) scale(1,1)"><path fill="none" stroke="#000000" d="M 56 287 L 456 287 L 456 376 L 56 376 L 56 287 Z Z" stroke-miterlimit="10"></path></g><g transform="translate(-6,-14) scale(1,1)"><rect fill="#ffffff" stroke="none" x="56" y="272" width="160" height="15"></rect></g><g transform="translate(-6,-14) scale(1,1)"><path fill="none" stroke="#000000" d="M 56 272 L 216 272 L 216 287 L 56 287 L 56 272 Z Z" stroke-miterlimit="10"></path></g><g transform="translate(-6,-14) scale(1,1)"><rect fill="#ffffff" stroke="none" x="56" y="286" width="400" height="90"></rect></g><g transform="translate(-6,-14) scale(1,1)"><path fill="none" stroke="#000000" d="M 56 286 L 456 286 L 456 376 L 56 376 L 56 286 Z Z" stroke-miterlimit="10"></path></g><g transform="translate(-6,-14) scale(1,1)"><g><path fill="none" stroke="none"></path><text fill="#000000" stroke="none" font-family="Arial" font-size="13px" font-style="normal" font-weight="bold" text-decoration="none" x="247.5" y="306.5">log</text></g></g><g transform="translate(-6,-14) scale(1,1)"><path fill="none" stroke="#000000" d="M 279 206 L 217 182" stroke-miterlimit="10"></path></g><g transform="translate(-6,-14) scale(1,1)"><path fill="#FFFFFF" stroke="none" d="M 238.99399489977242 181.48600744287003 L 217 182 L 232.91555056163742 197.1886553163854"></path></g><g transform="translate(-6,-14) scale(1,1)"><path fill="none" stroke="#000000" d="M 238.99399489977242 181.48600744287003 L 217 182 L 232.91555056163742 197.1886553163854 L 238.99399489977242 181.48600744287003" stroke-miterlimit="10"></path></g><g transform="translate(-6,-14) scale(1,1)"><path fill="none" stroke="#000000" d="M 159 303 L 178.73684210526315 167" stroke-miterlimit="10"></path></g><g transform="translate(-6,-14) scale(1,1)"><rect fill="#C0C0C0" stroke="none" x="111" y="311" width="105" height="44" opacity="0.2"></rect></g><g transform="translate(-6,-14) scale(1,1)"><rect fill="#ffffff" stroke="none" x="104" y="304" width="105" height="44"></rect></g><g transform="translate(-6,-14) scale(1,1)"><path fill="none" stroke="#000000" d="M 104 304 L 209 304 L 209 348 L 104 348 L 104 304 Z Z" stroke-miterlimit="10"></path></g><g transform="translate(-6,-14) scale(1,1)"><path fill="none" stroke="#000000" d="M 104 329 L 209 329" stroke-miterlimit="10"></path></g><g transform="translate(-6,-14) scale(1,1)"><path fill="none" stroke="#000000" d="M 104 339 L 209 339" stroke-miterlimit="10"></path></g><g transform="translate(-6,-14) scale(1,1)"><g><path fill="none" stroke="none"></path><text fill="#000000" stroke="none" font-family="Arial" font-size="13px" font-style="normal" font-weight="bold" text-decoration="none" x="113.5" y="323.5">PositionLogger</text></g></g><g transform="translate(-6,-14) scale(1,1)"><path fill="none" stroke="#000000" d="M 341 303 L 328.2631578947368 223" stroke-miterlimit="10"></path></g><g transform="translate(-6,-14) scale(1,1)"><rect fill="#C0C0C0" stroke="none" x="311" y="311" width="83" height="44" opacity="0.2"></rect></g><g transform="translate(-6,-14) scale(1,1)"><rect fill="#ffffff" stroke="none" x="304" y="304" width="83" height="44"></rect></g><g transform="translate(-6,-14) scale(1,1)"><path fill="none" stroke="#000000" d="M 304 304 L 387 304 L 387 348 L 304 348 L 304 304 Z Z" stroke-miterlimit="10"></path></g><g transform="translate(-6,-14) scale(1,1)"><path fill="none" stroke="#000000" d="M 304 329 L 387 329" stroke-miterlimit="10"></path></g><g transform="translate(-6,-14) scale(1,1)"><path fill="none" stroke="#000000" d="M 304 339 L 387 339" stroke-miterlimit="10"></path></g><g transform="translate(-6,-14) scale(1,1)"><g><path fill="none" stroke="none"></path><text fill="#000000" stroke="none" font-family="Arial" font-size="13px" font-style="normal" font-weight="bold" text-decoration="none" x="312.5" y="323.5">DataLogger</text></g></g><g transform="translate(-6,-14) scale(1,1)"><path fill="#C0C0C0" stroke="none" d="M 175.5 162.5 C 175.5 156.1487248 180.6487248 151 187 151 C 193.3512752 151 198.5 156.1487248 198.5 162.5 C 198.5 168.8512752 193.3512752 174 187 174 C 180.6487248 174 175.5 168.8512752 175.5 162.5 Z" opacity="0.2"></path></g><g transform="translate(-6,-14) scale(1,1)"><path fill="#ffffff" stroke="none" d="M 168.5 155.5 C 168.5 149.1487248 173.6487248 144 180 144 C 186.3512752 144 191.5 149.1487248 191.5 155.5 C 191.5 161.8512752 186.3512752 167 180 167 C 173.6487248 167 168.5 161.8512752 168.5 155.5 Z"></path></g><g transform="translate(-6,-14) scale(1,1)"><path fill="none" stroke="#000000" d="M 168.5 155.5 C 168.5 149.1487248 173.6487248 144 180 144 C 186.3512752 144 191.5 149.1487248 191.5 155.5 C 191.5 161.8512752 186.3512752 167 180 167 C 173.6487248 167 168.5 161.8512752 168.5 155.5 Z" stroke-miterlimit="10"></path></g><g transform="translate(-6,-14) scale(1,1)"><g><path fill="none" stroke="none"></path><text fill="#000000" stroke="none" font-family="Arial" font-size="13px" font-style="normal" font-weight="bold" text-decoration="none" x="154.5" y="186.5">Observer</text></g></g><g transform="translate(-6,-14) scale(1,1)"><path fill="#C0C0C0" stroke="none" d="M 323 218.5 C 323 212.1487248 328.1487248 207 334.5 207 C 340.8512752 207 346 212.1487248 346 218.5 C 346 224.8512752 340.8512752 230 334.5 230 C 328.1487248 230 323 224.8512752 323 218.5 Z" opacity="0.2"></path></g><g transform="translate(-6,-14) scale(1,1)"><path fill="#ffffff" stroke="none" d="M 316 211.5 C 316 205.1487248 321.1487248 200 327.5 200 C 333.8512752 200 339 205.1487248 339 211.5 C 339 217.8512752 333.8512752 223 327.5 223 C 321.1487248 223 316 217.8512752 316 211.5 Z"></path></g><g transform="translate(-6,-14) scale(1,1)"><path fill="none" stroke="#000000" d="M 316 211.5 C 316 205.1487248 321.1487248 200 327.5 200 C 333.8512752 200 339 205.1487248 339 211.5 C 339 217.8512752 333.8512752 223 327.5 223 C 321.1487248 223 316 217.8512752 316 211.5 Z" stroke-miterlimit="10"></path></g><g transform="translate(-6,-14) scale(1,1)"><g><path fill="none" stroke="none"></path><text fill="#000000" stroke="none" font-family="Arial" font-size="13px" font-style="normal" font-weight="bold" text-decoration="none" x="288.5" y="242.5">DataObserver</text></g></g></g></svg>