<svg version="1.1" xmlns="http://www.w3.org/2000/svg" xmlns:xlink="http://www.w3.org/1999/xlink" width="332" height="508"><defs></defs><g><g transform="translate(-22,-14) scale(1,1)"><rect fill="#C0C0C0" stroke="none" x="39" y="31" width="124.80000000000001" height="15" opacity="0.2"></rect></g><g transform="translate(-22,-14) scale(1,1)"><rect fill="#C0C0C0" stroke="none" x="39" y="45" width="312" height="474" opacity="0.2"></rect></g><g transform="translate(-22,-14) scale(1,1)"><rect fill="#ffffff" stroke="none" x="32" y="39" width="312" height="473"></rect></g><g transform="translate(-22,-14) scale(1,1)"><path fill="none" stroke="#000000" d="M 32 39 L 344 39 L 344 512 L 32 512 L 32 39 Z Z" stroke-miterlimit="10"></path></g><g transform="translate(-22,-14) scale(1,1)"><rect fill="#ffffff" stroke="none" x="32" y="24" width="124.80000000000001" height="15"></rect></g><g transform="translate(-22,-14) scale(1,1)"><path fill="none" stroke="#000000" d="M 32 24 L 156.8 24 L 156.8 39 L 32 39 L 32 24 Z Z" stroke-miterlimit="10"></path></g><g transform="translate(-22,-14) scale(1,1)"><rect fill="#ffffff" stroke="none" x="32" y="38" width="312" height="474"></rect></g><g transform="translate(-22,-14) scale(1,1)"><path fill="none" stroke="#000000" d="M 32 38 L 344 38 L 344 512 L 32 512 L 32 38 Z Z" stroke-miterlimit="10"></path></g><g transform="translate(-22,-14) scale(1,1)"><g><path fill="none" stroke="none"></path><text fill="#000000" stroke="none" font-family="Arial" font-size="13px" font-style="normal" font-weight="bold" text-decoration="none" x="96.5" y="58.5">it.cnr.isti.wnlab.indoornavigation</text></g></g><g transform="translate(-22,-14) scale(1,1)"><rect fill="#C0C0C0" stroke="none" x="87" y="95" width="83.19999999999999" height="15" opacity="0.2"></rect></g><g transform="translate(-22,-14) scale(1,1)"><rect fill="#C0C0C0" stroke="none" x="87" y="109" width="208" height="369" opacity="0.2"></rect></g><g transform="translate(-22,-14) scale(1,1)"><rect fill="#ffffff" stroke="none" x="80" y="103" width="208" height="368"></rect></g><g transform="translate(-22,-14) scale(1,1)"><path fill="none" stroke="#000000" d="M 80 103 L 288 103 L 288 471 L 80 471 L 80 103 Z Z" stroke-miterlimit="10"></path></g><g transform="translate(-22,-14) scale(1,1)"><rect fill="#ffffff" stroke="none" x="80" y="88" width="83.19999999999999" height="15"></rect></g><g transform="translate(-22,-14) scale(1,1)"><path fill="none" stroke="#000000" d="M 80 88 L 163.2 88 L 163.2 103 L 80 103 L 80 88 Z Z" stroke-miterlimit="10"></path></g><g transform="translate(-22,-14) scale(1,1)"><rect fill="#ffffff" stroke="none" x="80" y="102" width="208" height="369"></rect></g><g transform="translate(-22,-14) scale(1,1)"><path fill="none" stroke="#000000" d="M 80 102 L 288 102 L 288 471 L 80 471 L 80 102 Z Z" stroke-miterlimit="10"></path></g><g transform="translate(-22,-14) scale(1,1)"><g><path fill="none" stroke="none"></path><text fill="#000000" stroke="none" font-family="Arial" font-size="13px" font-style="normal" font-weight="bold" text-decoration="none" x="160" y="122.5">observer</text></g></g><g transform="translate(-22,-14) scale(1,1)"><path fill="none" stroke="#000000" d="M 182 311 L 181 252" stroke-miterlimit="10"></path></g><g transform="translate(-22,-14) scale(1,1)"><path fill="#FFFFFF" stroke="none" d="M 189.76227446939083 272.1797558489458 L 181 252 L 172.92662149244558 272.4651058994025"></path></g><g transform="translate(-22,-14) scale(1,1)"><path fill="none" stroke="#000000" d="M 189.76227446939083 272.1797558489458 L 181 252 L 172.92662149244558 272.4651058994025 L 189.76227446939083 272.1797558489458" stroke-miterlimit="10"></path></g><g transform="translate(-22,-14) scale(1,1)"><path fill="#C0C0C0" stroke="none" d="M 177.5 330.5 C 177.5 324.1487248 182.6487248 319 189 319 C 195.3512752 319 200.5 324.1487248 200.5 330.5 C 200.5 336.8512752 195.3512752 342 189 342 C 182.6487248 342 177.5 336.8512752 177.5 330.5 Z" opacity="0.2"></path></g><g transform="translate(-22,-14) scale(1,1)"><path fill="#ffffff" stroke="none" d="M 170.5 323.5 C 170.5 317.1487248 175.6487248 312 182 312 C 188.3512752 312 193.5 317.1487248 193.5 323.5 C 193.5 329.8512752 188.3512752 335 182 335 C 175.6487248 335 170.5 329.8512752 170.5 323.5 Z"></path></g><g transform="translate(-22,-14) scale(1,1)"><path fill="none" stroke="#000000" d="M 170.5 323.5 C 170.5 317.1487248 175.6487248 312 182 312 C 188.3512752 312 193.5 317.1487248 193.5 323.5 C 193.5 329.8512752 188.3512752 335 182 335 C 175.6487248 335 170.5 329.8512752 170.5 323.5 Z" stroke-miterlimit="10"></path></g><g transform="translate(-22,-14) scale(1,1)"><path fill="none" stroke="#000000" d="M 110 360 L 254 360" stroke-miterlimit="10"></path></g><g transform="translate(-22,-14) scale(1,1)"><g><path fill="none" stroke="none"></path><text fill="#000000" stroke="none" font-family="Arial" font-size="13px" font-style="normal" font-weight="bold" text-decoration="none" x="143" y="354.5">DataObserver</text></g></g><g transform="translate(-22,-14) scale(1,1)"><g><path fill="none" stroke="none"></path><text fill="#000000" stroke="none" font-family="Arial" font-size="13px" font-style="normal" font-weight="normal" text-decoration="none" x="115" y="377.5">+notify(data: DataType)</text></g></g><g transform="translate(-22,-14) scale(1,1)"><path fill="#C0C0C0" stroke="none" d="M 177 198.5 C 177 192.1487248 182.1487248 187 188.5 187 C 194.8512752 187 200 192.1487248 200 198.5 C 200 204.8512752 194.8512752 210 188.5 210 C 182.1487248 210 177 204.8512752 177 198.5 Z" opacity="0.2"></path></g><g transform="translate(-22,-14) scale(1,1)"><path fill="#ffffff" stroke="none" d="M 170 191.5 C 170 185.1487248 175.1487248 180 181.5 180 C 187.8512752 180 193 185.1487248 193 191.5 C 193 197.8512752 187.8512752 203 181.5 203 C 175.1487248 203 170 197.8512752 170 191.5 Z"></path></g><g transform="translate(-22,-14) scale(1,1)"><path fill="none" stroke="#000000" d="M 170 191.5 C 170 185.1487248 175.1487248 180 181.5 180 C 187.8512752 180 193 185.1487248 193 191.5 C 193 197.8512752 187.8512752 203 181.5 203 C 175.1487248 203 170 197.8512752 170 191.5 Z" stroke-miterlimit="10"></path></g><g transform="translate(-22,-14) scale(1,1)"><path fill="none" stroke="#000000" d="M 118 228 L 245 228" stroke-miterlimit="10"></path></g><g transform="translate(-22,-14) scale(1,1)"><g><path fill="none" stroke="none"></path><text fill="#000000" stroke="none" font-family="Arial" font-size="13px" font-style="normal" font-weight="bold" text-decoration="none" x="156" y="222.5">Observer</text></g></g><g transform="translate(-22,-14) scale(1,1)"><g><path fill="none" stroke="none"></path><text fill="#000000" stroke="none" font-family="Arial" font-size="13px" font-style="normal" font-weight="normal" text-decoration="none" x="123" y="245.5">+notify(data: Object)</text></g></g></g></svg>