<svg version="1.1" xmlns="http://www.w3.org/2000/svg" xmlns:xlink="http://www.w3.org/1999/xlink" width="300" height="452"><defs></defs><g><g transform="translate(-6,2) scale(1,1)"><rect fill="#C0C0C0" stroke="none" x="23" y="15" width="112" height="15" opacity="0.2"></rect></g><g transform="translate(-6,2) scale(1,1)"><rect fill="#C0C0C0" stroke="none" x="23" y="29" width="280" height="418" opacity="0.2"></rect></g><g transform="translate(-6,2) scale(1,1)"><rect fill="#ffffff" stroke="none" x="16" y="23" width="280" height="417"></rect></g><g transform="translate(-6,2) scale(1,1)"><path fill="none" stroke="#000000" d="M 16 23 L 296 23 L 296 440 L 16 440 L 16 23 Z Z" stroke-miterlimit="10"></path></g><g transform="translate(-6,2) scale(1,1)"><rect fill="#ffffff" stroke="none" x="16" y="8" width="112" height="15"></rect></g><g transform="translate(-6,2) scale(1,1)"><path fill="none" stroke="#000000" d="M 16 8 L 128 8 L 128 23 L 16 23 L 16 8 Z Z" stroke-miterlimit="10"></path></g><g transform="translate(-6,2) scale(1,1)"><rect fill="#ffffff" stroke="none" x="16" y="22" width="280" height="418"></rect></g><g transform="translate(-6,2) scale(1,1)"><path fill="none" stroke="#000000" d="M 16 22 L 296 22 L 296 440 L 16 440 L 16 22 Z Z" stroke-miterlimit="10"></path></g><g transform="translate(-6,2) scale(1,1)"><g><path fill="none" stroke="none"></path><text fill="#000000" stroke="none" font-family="Arial" font-size="13px" font-style="normal" font-weight="bold" text-decoration="none" x="64.5" y="42.5">it.cnr.isti.wnlab.indoornavigation</text></g></g><g transform="translate(-6,2) scale(1,1)"><rect fill="#C0C0C0" stroke="none" x="79" y="223" width="64" height="15" opacity="0.2"></rect></g><g transform="translate(-6,2) scale(1,1)"><rect fill="#C0C0C0" stroke="none" x="79" y="237" width="160" height="161" opacity="0.2"></rect></g><g transform="translate(-6,2) scale(1,1)"><rect fill="#ffffff" stroke="none" x="72" y="231" width="160" height="160"></rect></g><g transform="translate(-6,2) scale(1,1)"><path fill="none" stroke="#000000" d="M 72 231 L 232 231 L 232 391 L 72 391 L 72 231 Z Z" stroke-miterlimit="10"></path></g><g transform="translate(-6,2) scale(1,1)"><rect fill="#ffffff" stroke="none" x="72" y="216" width="64" height="15"></rect></g><g transform="translate(-6,2) scale(1,1)"><path fill="none" stroke="#000000" d="M 72 216 L 136 216 L 136 231 L 72 231 L 72 216 Z Z" stroke-miterlimit="10"></path></g><g transform="translate(-6,2) scale(1,1)"><rect fill="#ffffff" stroke="none" x="72" y="230" width="160" height="161"></rect></g><g transform="translate(-6,2) scale(1,1)"><path fill="none" stroke="#000000" d="M 72 230 L 232 230 L 232 391 L 72 391 L 72 230 Z Z" stroke-miterlimit="10"></path></g><g transform="translate(-6,2) scale(1,1)"><g><path fill="none" stroke="none"></path><text fill="#000000" stroke="none" font-family="Arial" font-size="13px" font-style="normal" font-weight="bold" text-decoration="none" x="143" y="250.5">pdr</text></g></g><g transform="translate(-6,2) scale(1,1)"><rect fill="#C0C0C0" stroke="none" x="135" y="295" width="70" height="57" opacity="0.2"></rect></g><g transform="translate(-6,2) scale(1,1)"><rect fill="#ffffff" stroke="none" x="128" y="288" width="70" height="57"></rect></g><g transform="translate(-6,2) scale(1,1)"><path fill="none" stroke="#000000" d="M 128 288 L 198 288 L 198 345 L 128 345 L 128 288 Z Z" stroke-miterlimit="10"></path></g><g transform="translate(-6,2) scale(1,1)"><path fill="none" stroke="#000000" d="M 128 326 L 198 326" stroke-miterlimit="10"></path></g><g transform="translate(-6,2) scale(1,1)"><path fill="none" stroke="#000000" d="M 128 336 L 198 336" stroke-miterlimit="10"></path></g><g transform="translate(-6,2) scale(1,1)"><g><path fill="none" stroke="none"></path><text fill="#000000" stroke="none" font-family="Arial" font-size="13px" font-style="normal" font-weight="normal" text-decoration="none" x="132.5" y="305.5">«abstract»</text></g></g><g transform="translate(-6,2) scale(1,1)"><g><path fill="none" stroke="none"></path><text fill="#000000" stroke="none" font-family="Arial" font-size="13px" font-style="normal" font-weight="bold" text-decoration="none" x="149.5" y="320.5">PDR</text></g></g><g transform="translate(-6,2) scale(1,1)"><path fill="#C0C0C0" stroke="none" d="M 159.5 90.5 C 159.5 84.1487248 164.6487248 79 171 79 C 177.3512752 79 182.5 84.1487248 182.5 90.5 C 182.5 96.8512752 177.3512752 102 171 102 C 164.6487248 102 159.5 96.8512752 159.5 90.5 Z" opacity="0.2"></path></g><g transform="translate(-6,2) scale(1,1)"><path fill="#ffffff" stroke="none" d="M 152.5 83.5 C 152.5 77.1487248 157.6487248 72 164 72 C 170.3512752 72 175.5 77.1487248 175.5 83.5 C 175.5 89.8512752 170.3512752 95 164 95 C 157.6487248 95 152.5 89.8512752 152.5 83.5 Z"></path></g><g transform="translate(-6,2) scale(1,1)"><path fill="none" stroke="#000000" d="M 152.5 83.5 C 152.5 77.1487248 157.6487248 72 164 72 C 170.3512752 72 175.5 77.1487248 175.5 83.5 C 175.5 89.8512752 170.3512752 95 164 95 C 157.6487248 95 152.5 89.8512752 152.5 83.5 Z" stroke-miterlimit="10"></path></g><g transform="translate(-6,2) scale(1,1)"><g><path fill="none" stroke="none"></path><text fill="#000000" stroke="none" font-family="Arial" font-size="13px" font-style="normal" font-weight="bold" text-decoration="none" x="143" y="114.5">Emitter</text></g></g><g transform="translate(-6,2) scale(1,1)"><path fill="none" stroke="#000000" d="M 169 135 L 164.94736842105263 95" stroke-miterlimit="10"></path></g><g transform="translate(-6,2) scale(1,1)"><rect fill="#C0C0C0" stroke="none" x="127" y="143" width="105" height="57" opacity="0.2"></rect></g><g transform="translate(-6,2) scale(1,1)"><rect fill="#ffffff" stroke="none" x="120" y="136" width="105" height="57"></rect></g><g transform="translate(-6,2) scale(1,1)"><path fill="none" stroke="#000000" d="M 120 136 L 225 136 L 225 193 L 120 193 L 120 136 Z Z" stroke-miterlimit="10"></path></g><g transform="translate(-6,2) scale(1,1)"><path fill="none" stroke="#000000" d="M 120 174 L 225 174" stroke-miterlimit="10"></path></g><g transform="translate(-6,2) scale(1,1)"><path fill="none" stroke="#000000" d="M 120 184 L 225 184" stroke-miterlimit="10"></path></g><g transform="translate(-6,2) scale(1,1)"><g><path fill="none" stroke="none"></path><text fill="#000000" stroke="none" font-family="Arial" font-size="13px" font-style="normal" font-weight="normal" text-decoration="none" x="142" y="153.5">«abstract»</text></g></g><g transform="translate(-6,2) scale(1,1)"><g><path fill="none" stroke="none"></path><text fill="#000000" stroke="none" font-family="Arial" font-size="13px" font-style="normal" font-weight="bold" text-decoration="none" x="127" y="168.5">AbstractEmitter</text></g></g><g transform="translate(-6,2) scale(1,1)"><path fill="none" stroke="#000000" d="M 165 287 L 170 194" stroke-miterlimit="10"></path></g><g transform="translate(-6,2) scale(1,1)"><path fill="#FFFFFF" stroke="none" d="M 177.31570934737005 214.74802151398544 L 170 194 L 160.5019209799717 213.84405439745865"></path></g><g transform="translate(-6,2) scale(1,1)"><path fill="none" stroke="#000000" d="M 177.31570934737005 214.74802151398544 L 170 194 L 160.5019209799717 213.84405439745865 L 177.31570934737005 214.74802151398544" stroke-miterlimit="10"></path></g></g></svg>