<svg version="1.1" xmlns="http://www.w3.org/2000/svg" xmlns:xlink="http://www.w3.org/1999/xlink" width="300" height="332"><defs></defs><g><g transform="translate(-22,2) scale(1,1)"><rect fill="#C0C0C0" stroke="none" x="39" y="15" width="112" height="15" opacity="0.2"></rect></g><g transform="translate(-22,2) scale(1,1)"><rect fill="#C0C0C0" stroke="none" x="39" y="29" width="280" height="298" opacity="0.2"></rect></g><g transform="translate(-22,2) scale(1,1)"><rect fill="#ffffff" stroke="none" x="32" y="23" width="280" height="297"></rect></g><g transform="translate(-22,2) scale(1,1)"><path fill="none" stroke="#000000" d="M 32 23 L 312 23 L 312 320 L 32 320 L 32 23 Z Z" stroke-miterlimit="10"></path></g><g transform="translate(-22,2) scale(1,1)"><rect fill="#ffffff" stroke="none" x="32" y="8" width="112" height="15"></rect></g><g transform="translate(-22,2) scale(1,1)"><path fill="none" stroke="#000000" d="M 32 8 L 144 8 L 144 23 L 32 23 L 32 8 Z Z" stroke-miterlimit="10"></path></g><g transform="translate(-22,2) scale(1,1)"><rect fill="#ffffff" stroke="none" x="32" y="22" width="280" height="298"></rect></g><g transform="translate(-22,2) scale(1,1)"><path fill="none" stroke="#000000" d="M 32 22 L 312 22 L 312 320 L 32 320 L 32 22 Z Z" stroke-miterlimit="10"></path></g><g transform="translate(-22,2) scale(1,1)"><g><path fill="none" stroke="none"></path><text fill="#000000" stroke="none" font-family="Arial" font-size="13px" font-style="normal" font-weight="bold" text-decoration="none" x="80.5" y="42.5">it.cnr.isti.wnlab.indoornavigation</text></g></g><g transform="translate(-22,2) scale(1,1)"><rect fill="#C0C0C0" stroke="none" x="135" y="87" width="77" height="72" opacity="0.2"></rect></g><g transform="translate(-22,2) scale(1,1)"><rect fill="#ffffff" stroke="none" x="128" y="80" width="77" height="72"></rect></g><g transform="translate(-22,2) scale(1,1)"><path fill="none" stroke="#000000" d="M 128 80 L 205 80 L 205 152 L 128 152 L 128 80 Z Z" stroke-miterlimit="10"></path></g><g transform="translate(-22,2) scale(1,1)"><path fill="none" stroke="#000000" d="M 128 105 L 205 105" stroke-miterlimit="10"></path></g><g transform="translate(-22,2) scale(1,1)"><path fill="none" stroke="#000000" d="M 128 143 L 205 143" stroke-miterlimit="10"></path></g><g transform="translate(-22,2) scale(1,1)"><g><path fill="none" stroke="none"></path><text fill="#000000" stroke="none" font-family="Arial" font-size="13px" font-style="normal" font-weight="bold" text-decoration="none" x="135" y="99.5">XYPosition</text></g></g><g transform="translate(-22,2) scale(1,1)"><g><path fill="none" stroke="none"></path><text fill="#000000" stroke="none" font-family="Arial" font-size="13px" font-style="normal" font-weight="normal" text-decoration="none" x="133" y="122.5">+x: float</text></g></g><g transform="translate(-22,2) scale(1,1)"><g><path fill="none" stroke="none"></path><text fill="#000000" stroke="none" font-family="Arial" font-size="13px" font-style="normal" font-weight="normal" text-decoration="none" x="133" y="137.5">+y: float</text></g></g><g transform="translate(-22,2) scale(1,1)"><rect fill="#C0C0C0" stroke="none" x="119" y="215" width="110" height="72" opacity="0.2"></rect></g><g transform="translate(-22,2) scale(1,1)"><rect fill="#ffffff" stroke="none" x="112" y="208" width="110" height="72"></rect></g><g transform="translate(-22,2) scale(1,1)"><path fill="none" stroke="#000000" d="M 112 208 L 222 208 L 222 280 L 112 280 L 112 208 Z Z" stroke-miterlimit="10"></path></g><g transform="translate(-22,2) scale(1,1)"><path fill="none" stroke="#000000" d="M 112 233 L 222 233" stroke-miterlimit="10"></path></g><g transform="translate(-22,2) scale(1,1)"><path fill="none" stroke="#000000" d="M 112 271 L 222 271" stroke-miterlimit="10"></path></g><g transform="translate(-22,2) scale(1,1)"><g><path fill="none" stroke="none"></path><text fill="#000000" stroke="none" font-family="Arial" font-size="13px" font-style="normal" font-weight="bold" text-decoration="none" x="126" y="227.5">IndoorPosition</text></g></g><g transform="translate(-22,2) scale(1,1)"><g><path fill="none" stroke="none"></path><text fill="#000000" stroke="none" font-family="Arial" font-size="13px" font-style="normal" font-weight="normal" text-decoration="none" x="117" y="250.5">+floor: int</text></g></g><g transform="translate(-22,2) scale(1,1)"><g><path fill="none" stroke="none"></path><text fill="#000000" stroke="none" font-family="Arial" font-size="13px" font-style="normal" font-weight="normal" text-decoration="none" x="117" y="265.5">+timestamp: long</text></g></g><g transform="translate(-22,2) scale(1,1)"><path fill="none" stroke="#000000" d="M 167 207 L 166 153" stroke-miterlimit="10"></path></g><g transform="translate(-22,2) scale(1,1)"><path fill="#FFFFFF" stroke="none" d="M 174.79392313204616 173.16598413040293 L 166 153 L 157.95873855199486 173.47774680781131"></path></g><g transform="translate(-22,2) scale(1,1)"><path fill="none" stroke="#000000" d="M 174.79392313204616 173.16598413040293 L 166 153 L 157.95873855199486 173.47774680781131 L 174.79392313204616 173.16598413040293" stroke-miterlimit="10"></path></g></g></svg>